<?xml version="1.0" encoding="UTF-8"?><svg id="_圖層_1" xmlns="http://www.w3.org/2000/svg" viewBox="0 0 71.14 18"><defs><style>.cls-1{fill:#fff;}.cls-2{fill:#1457a7;}.cls-3{fill:#072644;}</style></defs><g><path class="cls-2" d="M35.02,9.1l-.39,.95c-1.76-.23-3.35-.63-4.76-1.21-1.48,.55-3.1,.93-4.85,1.15l-.41-.97c1.42-.12,2.78-.38,4.07-.79-.7-.48-1.17-.83-1.42-1.04-.51,.38-1,.72-1.49,1.02l-.71-.78c1.35-.78,2.42-1.67,3.22-2.68h-2.36v1.66h-1.07V3.77h4.28c-.02-.09-.14-.31-.36-.69l1.13-.26c.12,.18,.29,.49,.49,.95h4.38v2.63h-1.08v-1.66h-5.24l.81,.46c-.12,.16-.27,.34-.43,.52h4.37v.94c-.78,.64-1.51,1.18-2.2,1.59,1.29,.44,2.62,.72,4.01,.85Zm-1.5,4.32h-1.09v-.45h-5.22v.45h-1.1v-3.43h7.41v3.43Zm-1.09-1.42v-1.05h-5.22v1.05h5.22Zm-.84-5.35h-3.43c.5,.42,1.06,.79,1.68,1.11,.71-.38,1.29-.75,1.75-1.11Z"/><path class="cls-2" d="M40.73,12.51c0,.24-.09,.45-.27,.63s-.72,.25-1.6,.23l-.36-1.05c.26,.03,.49,.05,.69,.05,.21,0,.34-.02,.4-.06s.09-.1,.09-.19v-2.57h-1.32c-.11,1.58-.4,2.87-.86,3.88l-.94-.58c.5-1.13,.74-2.58,.74-4.35V3.16h3.43V12.51Zm-1.05-6.73v-1.57h-1.31v1.57h1.31Zm0,2.74v-1.71h-1.31v1.71h1.31Zm7.5,4.05l-.65,.87c-.5-.29-1.04-.69-1.59-1.2-.48,.49-.93,.87-1.34,1.15l-.73-.79c.56-.38,1.01-.77,1.35-1.16-.73-1.08-1.2-2.2-1.42-3.36h-.13v5.31h-1.08V3.11h5.24c0,.63-.05,1.25-.16,1.84s-.23,.96-.36,1.11-.3,.27-.5,.35-.71,.13-1.55,.13l-.42-1.01c.98,.02,1.52-.04,1.61-.18s.17-.55,.24-1.23h-3.02v2.92h4.07c-.15,1.87-.55,3.31-1.19,4.31,.35,.36,.9,.76,1.63,1.21Zm-1.59-4.5h-1.71c.14,.79,.46,1.59,.95,2.41,.32-.54,.57-1.34,.76-2.41Z"/><path class="cls-2" d="M59.11,12.58l-.69,.88c-2.34-1.77-3.87-3.63-4.61-5.57-.58,2.18-2.11,4.02-4.59,5.51l-.72-.87c3.15-1.96,4.73-4.53,4.73-7.69v-1.92h1.14v2.47c0,1.3,.44,2.58,1.31,3.83s2.02,2.37,3.44,3.37Z"/><path class="cls-2" d="M69.96,11.47h-5.58l.4,.35c-.92,.66-2.12,1.21-3.62,1.66l-.59-.86c1.18-.34,2.14-.72,2.88-1.15h-1.73V6.22h8.24v5.24Zm-.26-5.93h-7.72V3.21h7.72v2.33Zm-.79,2.19v-.67h-6.11v.67h6.11Zm0,1.45v-.69h-6.11v.69h6.11Zm0,1.48v-.7h-6.11v.7h6.11Zm-.27-5.92v-.69h-5.55v.69h5.55Zm2.5,7.88l-.53,.89c-1.06-.43-2.23-.75-3.5-.97l.49-.89c1.35,.22,2.53,.54,3.54,.97Z"/></g><circle class="cls-3" cx="9.09" cy="9.11" r="8.89"/><circle class="cls-2" cx="8.89" cy="8.89" r="8.89"/><g><path class="cls-3" d="M13.07,3.9h-2.91c-.18,0-.35,.04-.49,.12-.34,.18-.57,.53-.57,.94V14.71c2.81-.18,5.04-2.52,5.04-5.38V4.97c0-.59-.47-1.07-1.06-1.07Z"/><path class="cls-3" d="M7.37,9.34H3.35c0,2.87,2.25,5.22,5.09,5.38v-4.31c0-.59-.48-1.07-1.07-1.07Z"/></g><g><path class="cls-1" d="M12.72,3.9h-2.91c-.18,0-.35,.04-.49,.12-.34,.18-.57,.53-.57,.94V14.71c2.81-.18,5.04-2.52,5.04-5.38V4.97c0-.59-.47-1.07-1.06-1.07Z"/><path class="cls-1" d="M7.03,9.34H3c0,2.87,2.25,5.22,5.09,5.38v-4.31c0-.59-.48-1.07-1.07-1.07Z"/></g></svg>