<?xml version="1.0" encoding="utf-8"?>
<!-- Generator: Adobe Illustrator 24.2.3, SVG Export Plug-In . SVG Version: 6.00 Build 0)  -->
<svg version="1.1" id="圖層_1" xmlns="http://www.w3.org/2000/svg" xmlns:xlink="http://www.w3.org/1999/xlink" x="0px" y="0px"
	 viewBox="0 0 54.6 48.8" style="enable-background:new 0 0 54.6 48.8;" xml:space="preserve">
<style type="text/css">
	.st0{fill:#EAEAEA;}
	.st1{fill:#FFFFFF;}
	.st2{fill:#094C88;}
	.st3{fill:#3CA767;}
	.st4{fill:none;stroke:#040000;stroke-width:2;stroke-miterlimit:10;}
	.st5{fill:none;stroke:#E71F19;stroke-width:2;stroke-miterlimit:10;}
	.st6{fill:none;stroke:#E8401E;stroke-miterlimit:10;}
</style>
<g>
	<g>
		<path class="st1" d="M30.1,4l21.7,37.6c1.2,2.1-0.3,4.8-2.8,4.8H5.6c-2.5,0-4-2.7-2.8-4.8L24.5,4C25.8,1.9,28.9,1.9,30.1,4z"/>
		<path class="st2" d="M49,48.8H5.6c-2,0-3.8-1-4.9-2.8c-1-1.8-1-3.9,0-5.6L22.5,2.8C23.5,1,25.3,0,27.3,0s3.8,1,4.9,2.8l21.7,37.6
			c1,1.8,1,3.9,0,5.6C52.8,47.7,51,48.8,49,48.8z M27.3,4.8c-0.2,0-0.5,0-0.7,0.4L4.9,42.8c-0.2,0.3-0.1,0.6,0,0.8
			C5,43.7,5.2,44,5.6,44H49c0.4,0,0.6-0.2,0.7-0.4c0.1-0.1,0.2-0.4,0-0.8L28,5.2C27.8,4.9,27.5,4.8,27.3,4.8z"/>
	</g>
	<g>
		<g>
			<path class="st2" d="M27,41.3c-0.9,0-1.6-0.3-2.2-0.9C24.2,39.8,24,39,24,38.1c0-0.9,0.3-1.7,0.9-2.3c0.6-0.6,1.3-0.9,2.2-0.9
				s1.6,0.3,2.2,0.9c0.6,0.6,0.9,1.4,0.9,2.3s-0.3,1.7-0.9,2.3C28.7,41,27.9,41.3,27,41.3z M27,32.3c-1.1,0-1.7-0.5-1.7-1.6
				l-0.6-10.9l-0.1-2.1c-0.1-1.7,0.7-2.6,2.4-2.6s2.5,0.9,2.4,2.6l-0.1,2.1L29,26.1l-0.2,4.7C28.7,31.8,28.1,32.3,27,32.3z"/>
		</g>
	</g>
</g>
</svg>
