<?xml version="1.0" encoding="UTF-8"?><svg id="_圖層_1" xmlns="http://www.w3.org/2000/svg" viewBox="0 0 71.77 18"><defs><style>.cls-1{fill:#fff;}.cls-2{fill:#1457a7;}.cls-3{fill:#072644;}</style></defs><g><path class="cls-2" d="M28.22,3.28c-.88,1.17-1.94,2.12-3.21,2.85l-.52-1.03c.95-.5,1.85-1.26,2.68-2.3l1.04,.48Zm.25,2.22c-.37,.63-.77,1.22-1.19,1.78v6.11h-1.11v-4.82c-.43,.43-.83,.76-1.2,1l-.47-1.07c1.02-.66,2-1.8,2.94-3.41l1.03,.42Zm6.56,1.83h-1.62v4.86c0,.8-.43,1.2-1.3,1.2-.55,0-1.1-.01-1.63-.04l-.4-1.09c.34,0,.96,.01,1.86,.01,.08,0,.15-.03,.23-.1s.11-.14,.11-.24V7.34h-3.91v-1.05h6.66v1.05Zm-.3-3.04h-6.04v-1.04h6.04v1.04Z"/><path class="cls-2" d="M41.07,5.03l-.67,.8c-.48-.57-1-1.09-1.56-1.56-.28,.47-.61,.95-.98,1.42h2.19v.97h-.85v.9h1.49v.97h-1.49v3.09c.5-.12,.96-.25,1.35-.39l.07,.95c-1.4,.47-2.67,.83-3.81,1.08l-.28-.96c.69-.13,1.24-.26,1.65-.37v-3.4h-1.44v-.97h1.44v-.9h-.74v-.5c-.14,.11-.27,.22-.4,.31l-.61-.89c.81-.64,1.49-1.56,2.04-2.77l1,.28c-.03,.12-.08,.23-.16,.33,.73,.57,1.32,1.11,1.78,1.62Zm-3.18,6.31l-.88,.21c-.06-.79-.19-1.59-.38-2.43l.87-.21c.21,.84,.34,1.65,.39,2.43Zm2.78-2.31c-.03,.63-.14,1.33-.32,2.09l-.85-.21c.16-.54,.26-1.23,.3-2.08l.87,.21Zm6.11,3.36c0,.25-.08,.46-.24,.66s-.4,.3-.72,.32-.57,.03-.75,.03-.36,0-.53-.02l-.31-1.02c.14,.02,.31,.02,.49,.02,.49,0,.78-.03,.88-.08s.15-.14,.15-.27v-1.44c-1,.4-2.03,.75-3.09,1.05l-.35-.78c-.08,.97-.4,1.87-.96,2.7l-.87-.77c.56-.7,.84-1.62,.84-2.76v-3.56h2.17V2.92h1.08v3.55h2.22v5.91Zm-3.81-6.74l-.9,.48c-.38-.89-.79-1.67-1.25-2.34l.93-.47c.54,.8,.94,1.57,1.22,2.33Zm2.77,3.97v-2.16h-3.39v.61c1.2,.15,2.12,.32,2.76,.53l-.3,.94c-.83-.27-1.64-.46-2.44-.56-.02,.8-.04,1.38-.06,1.75,1.05-.23,2.19-.6,3.42-1.11Zm1.38-5.92c-.25,.73-.62,1.54-1.14,2.44l-.93-.52c.43-.73,.79-1.5,1.08-2.3l.98,.38Z"/><path class="cls-2" d="M59.11,12.58l-.69,.88c-2.34-1.77-3.87-3.63-4.61-5.57-.58,2.18-2.11,4.02-4.59,5.51l-.72-.87c3.15-1.96,4.73-4.53,4.73-7.69v-1.92h1.14v2.47c0,1.3,.44,2.58,1.31,3.83s2.02,2.37,3.44,3.37Z"/><path class="cls-2" d="M69.96,11.47h-5.58l.4,.35c-.92,.66-2.12,1.21-3.62,1.66l-.59-.86c1.18-.34,2.14-.72,2.88-1.15h-1.73V6.22h8.24v5.24Zm-.26-5.93h-7.72V3.21h7.72v2.33Zm-.79,2.19v-.67h-6.11v.67h6.11Zm0,1.45v-.69h-6.11v.69h6.11Zm0,1.48v-.7h-6.11v.7h6.11Zm-.27-5.92v-.69h-5.55v.69h5.55Zm2.5,7.88l-.53,.89c-1.06-.43-2.23-.75-3.5-.97l.49-.89c1.35,.22,2.53,.54,3.54,.97Z"/></g><circle class="cls-3" cx="9.09" cy="9.11" r="8.89"/><circle class="cls-2" cx="8.89" cy="8.89" r="8.89"/><g><path class="cls-3" d="M13.07,3.9h-2.91c-.18,0-.35,.04-.49,.12-.34,.18-.57,.53-.57,.94V14.71c2.81-.18,5.04-2.52,5.04-5.38V4.97c0-.59-.47-1.07-1.06-1.07Z"/><path class="cls-3" d="M7.37,9.34H3.35c0,2.87,2.25,5.22,5.09,5.38v-4.31c0-.59-.48-1.07-1.07-1.07Z"/></g><g><path class="cls-1" d="M12.72,3.9h-2.91c-.18,0-.35,.04-.49,.12-.34,.18-.57,.53-.57,.94V14.71c2.81-.18,5.04-2.52,5.04-5.38V4.97c0-.59-.47-1.07-1.06-1.07Z"/><path class="cls-1" d="M7.03,9.34H3c0,2.87,2.25,5.22,5.09,5.38v-4.31c0-.59-.48-1.07-1.07-1.07Z"/></g></svg>