<svg id="圖層_1" data-name="圖層 1" xmlns="http://www.w3.org/2000/svg" viewBox="0 0 56 52"><defs><style>.cls-1{fill:#074f8f;}</style></defs><g id="Layer_25" data-name="Layer 25"><path class="cls-1" d="M42.84,37.15a1.83,1.83,0,0,1-1.19-.43l-8.4-7H29.83A14.87,14.87,0,0,1,29.83,0H41a14.87,14.87,0,0,1,3.71,29.25v6.06A1.84,1.84,0,0,1,43.62,37,1.8,1.8,0,0,1,42.84,37.15ZM29.83,3.7a11.15,11.15,0,0,0,0,22.3h4.08a1.83,1.83,0,0,1,1.19.43L41,31.32V27.71a1.86,1.86,0,0,1,1.6-1.86A11.15,11.15,0,0,0,41,3.7Z"/><rect class="cls-1" x="33.54" y="12.99" width="3.72" height="3.72"/><rect class="cls-1" x="24.25" y="12.99" width="3.72" height="3.72"/><rect class="cls-1" x="42.84" y="12.99" width="3.72" height="3.72"/><path class="cls-1" d="M13.1,52a1.89,1.89,0,0,1-.78-.17,1.85,1.85,0,0,1-1.08-1.69V44.1A14.87,14.87,0,0,1,8.86,16.22a1.86,1.86,0,0,1,1.74,3.29l-.21.1a11.15,11.15,0,0,0,3,21.18A1.87,1.87,0,0,1,15,42.65v3.61l5.87-4.89a1.9,1.9,0,0,1,1.19-.5h4.09a11.06,11.06,0,0,0,8-3.38,1.87,1.87,0,1,1,2.68,2.6h0a14.88,14.88,0,0,1-10.65,4.49H22.69l-8.4,7A1.85,1.85,0,0,1,13.1,52Z"/></g></svg>