<?xml version="1.0" encoding="UTF-8"?><svg id="_圖層_1" xmlns="http://www.w3.org/2000/svg" xmlns:xlink="http://www.w3.org/1999/xlink" viewBox="0 0 549.38 517.54"><defs><style>.cls-1{fill:#fff;}.cls-2{fill:url(#_未命名漸層_9);}.cls-2,.cls-3,.cls-4{opacity:.6;}.cls-5{fill:url(#_未命名漸層_6);}.cls-5,.cls-6{opacity:.8;}.cls-3{fill:url(#_未命名漸層_4);}.cls-6{fill:url(#_未命名漸層_10);}.cls-4{fill:url(#_未命名漸層_13);}</style><radialGradient id="_未命名漸層_4" cx="130.52" cy="52.68" fx="130.52" fy="52.68" r="290.71" gradientTransform="translate(-19.83 54.24) rotate(-6.21)" gradientUnits="userSpaceOnUse"><stop offset="0" stop-color="#c5f469" stop-opacity=".5"/><stop offset="1" stop-color="#15bc19"/></radialGradient><radialGradient id="_未命名漸層_9" cx="21.9" cy="80.63" fx="21.9" fy="80.63" r="21.9" gradientUnits="userSpaceOnUse"><stop offset="0" stop-color="#187707" stop-opacity=".5"/><stop offset="1" stop-color="#b6e800"/></radialGradient><radialGradient id="_未命名漸層_13" cx="102.9" cy="470.63" fx="102.9" fy="470.63" r="46.9" gradientUnits="userSpaceOnUse"><stop offset="0" stop-color="#9fea8f" stop-opacity=".5"/><stop offset="1" stop-color="#54e500"/></radialGradient><radialGradient id="_未命名漸層_6" cx="464.09" cy="395.02" fx="464.09" fy="395.02" r="14.05" gradientUnits="userSpaceOnUse"><stop offset="0" stop-color="#e9f489" stop-opacity=".5"/><stop offset="1" stop-color="#589b2d"/></radialGradient><radialGradient id="_未命名漸層_10" cx="511.09" cy="343.02" fx="511.09" fy="343.02" r="38.29" gradientUnits="userSpaceOnUse"><stop offset="0" stop-color="#e9f489" stop-opacity=".5"/><stop offset="1" stop-color="#38b238"/></radialGradient></defs><circle class="cls-3" cx="256.2" cy="216.2" r="216.19"/><g><path class="cls-1" d="M161.82,233.65l3.38-3.61c2.35,3.15,5.33,5.16,8.42,5.16,3.72,0,6.19-2.46,6.19-6.02,0-4.12-2.29-6.42-5.5-8.48l-4.24-2.75c-3.84-2.46-6.76-5.39-6.76-11,0-6.07,4.41-10.6,10.77-10.6,4.18,0,7.56,2.18,10.2,5.21l-2.92,3.44c-2.18-2.41-4.3-4.01-7.22-4.01-3.09,0-5.5,2.18-5.5,5.56,0,3.55,1.66,5.21,5.62,7.79l4.07,2.64c3.84,2.52,6.88,5.44,6.88,11.52s-4.47,11.34-11.57,11.34c-4.7,0-8.71-2.35-11.8-6.19Z"/><path class="cls-1" d="M189.78,228.61v-20.63h5.27v19.94c0,5.04,1.03,7.45,4.47,7.45,2.41,0,4.24-1.55,6.47-4.64v-22.75h5.27v31.17h-4.24l-.4-4.3h-.23c-2.41,2.81-5.04,4.98-8.71,4.98-5.61,0-7.91-3.84-7.91-11.23Z"/><path class="cls-1" d="M217.62,223.62c0-10.43,6.47-16.39,13.92-16.39,3.72,0,6.3,1.6,8.37,3.61l-2.69,3.38c-1.55-1.6-3.21-2.69-5.39-2.69-5.1,0-8.82,4.93-8.82,12.09s3.55,11.92,8.71,11.92c2.52,0,4.81-1.2,6.53-2.98l2.23,3.5c-2.52,2.46-5.79,3.84-9.28,3.84-7.62,0-13.58-6.02-13.58-16.27Z"/><path class="cls-1" d="M245.18,223.62c0-10.43,6.47-16.39,13.92-16.39,3.72,0,6.3,1.6,8.37,3.61l-2.69,3.38c-1.55-1.6-3.21-2.69-5.39-2.69-5.1,0-8.82,4.93-8.82,12.09s3.55,11.92,8.71,11.92c2.52,0,4.81-1.2,6.53-2.98l2.23,3.5c-2.52,2.46-5.79,3.84-9.28,3.84-7.62,0-13.58-6.02-13.58-16.27Z"/><path class="cls-1" d="M272.28,223.62c0-10.14,5.96-16.33,12.38-16.33,6.88,0,10.71,5.62,10.71,14.55,0,1.09-.06,2.23-.17,2.98h-17.7c.23,6.65,3.55,10.89,8.65,10.89,2.46,0,4.3-.69,6.13-1.83l1.89,3.38c-2.29,1.49-4.98,2.58-8.65,2.58-7.33,0-13.24-6.02-13.24-16.21Zm18.51-2.64c0-6.25-2.23-9.57-6.07-9.57-3.61,0-6.88,3.5-7.28,9.57h13.35Z"/><path class="cls-1" d="M299.84,235.6l2.58-3.44c2.81,2.18,5.16,3.72,9,3.72s5.9-2.23,5.9-4.87c0-3.27-3.44-4.58-6.93-5.96-4.13-1.66-9.05-3.72-9.05-9.05,0-4.93,3.9-8.77,10.54-8.77,3.95,0,6.93,1.55,9.4,3.44l-2.52,3.38c-2.18-1.6-4.01-2.75-6.82-2.75-3.84,0-5.56,2.12-5.56,4.47,0,3.04,3.21,4.01,6.7,5.39,4.3,1.72,9.34,3.61,9.34,9.51,0,5.04-3.95,9.22-11.17,9.22-4.53,0-8.37-1.83-11.4-4.3Z"/><path class="cls-1" d="M327.39,235.6l2.58-3.44c2.81,2.18,5.16,3.72,9,3.72s5.9-2.23,5.9-4.87c0-3.27-3.44-4.58-6.93-5.96-4.13-1.66-9.05-3.72-9.05-9.05,0-4.93,3.9-8.77,10.54-8.77,3.95,0,6.93,1.55,9.4,3.44l-2.52,3.38c-2.18-1.6-4.01-2.75-6.82-2.75-3.84,0-5.56,2.12-5.56,4.47,0,3.04,3.21,4.01,6.7,5.39,4.3,1.72,9.34,3.61,9.34,9.51,0,5.04-3.95,9.22-11.17,9.22-4.53,0-8.37-1.83-11.4-4.3Z"/></g><circle class="cls-2" cx="21.9" cy="80.63" r="21.9"/><circle class="cls-4" cx="102.9" cy="470.63" r="46.9"/><circle class="cls-5" cx="464.09" cy="395.02" r="14.05"/><circle class="cls-6" cx="511.09" cy="343.02" r="38.29"/></svg>