<?xml version="1.0" encoding="UTF-8"?><svg id="_圖層_1" xmlns="http://www.w3.org/2000/svg" viewBox="0 0 1921 437.28"><defs><style>.cls-1{fill:#fff;}.cls-2{fill:#3f1600;}.cls-3{fill:none;stroke:#a40508;}.cls-3,.cls-4,.cls-5{stroke-miterlimit:10;}.cls-6{fill:#a40508;}.cls-7{fill:#c3f4e1;}.cls-8{fill:#bbd9ef;}.cls-9{fill:#dec8c7;}.cls-4{stroke:#383838;stroke-width:.5px;}.cls-4,.cls-10{fill:#383838;}.cls-5{fill:#ebe4dc;stroke:#2d1609;}</style></defs><rect class="cls-5" x=".5" y=".5" width="1920" height="436.28"/><g><path class="cls-6" d="M858.55,34.81l3.65,1.07c-.4,.34-.79,.66-1.19,.95,2.46,1.22,5,2.32,7.62,3.3,3.26,1.22,6.44,2.2,9.57,2.94l-1.71,2.98c-3.2-.87-6.31-1.97-9.33-3.3-.11-.08-.24-.15-.4-.2v1.95h-15.72v-1.91c-2.88,1.38-5.99,2.59-9.33,3.65l-1.43-2.86c8.44-2.7,14.53-5.56,18.26-8.58Zm-13.66,11.43h28.23v10.8h-28.23v-10.8Zm26.2,12.55v13.18h-3.18v-1.43h-17.79v1.43h-3.18v-13.18h24.14Zm-23.07-4.49h4.49c-.66-1.48-1.51-2.9-2.54-4.25l1.67-1.15h-3.61v5.4Zm2.1,9.09h17.79v-1.91h-17.79v1.91Zm0,4.57h17.79v-2.06h-17.79v2.06Zm2.3-26.04h12.94c-2.36-1.06-4.6-2.2-6.75-3.41-1.56,1.01-3.28,1.99-5.16,2.94-.34,.16-.69,.32-1.03,.48Zm.24,6.99c.95,1.35,1.75,2.79,2.38,4.33l-1.91,1.07h4.13v-5.4h-4.6Zm7.46,0v5.4h3.69l-1.47-.75c1.24-1.46,2.2-2.9,2.86-4.33l2.54,.83c-.79,1.64-1.67,3.06-2.62,4.25h4.8v-5.4h-9.81Z"/><path class="cls-6" d="M894.44,66.22l2.06,2.42c-4.55,1.56-9.16,2.73-13.82,3.49l-.68-3.18c4.61-.69,8.75-1.6,12.43-2.74Zm-9.09-19.49h28.58v19.18h-28.58v-19.18Zm1.43-10.32h25.92v8.42h-25.92v-8.42Zm1.91,15.84h21.91v-2.5h-21.91v2.5Zm0,5.4h21.91v-2.66h-21.91v2.66Zm0,5.24h21.91v-2.5h-21.91v2.5Zm1.43-20.96h19.25v-2.7h-19.25v2.7Zm15.25,24.3c1.93,.61,3.94,1.12,6.03,1.55,2.01,.45,3.97,.79,5.88,1.03l-1.87,3.33c-2.01-.4-3.94-.89-5.8-1.47-2.25-.66-4.34-1.39-6.27-2.18l2.02-2.26Z"/><path class="cls-6" d="M922.19,42.08h16.08v3.06h-16.08v-3.06Zm1.75-5.36h13.06v2.86h-13.06v-2.86Zm0,11.12h13.06v2.98h-13.06v-2.98Zm0,5.56h13.06v3.02h-13.06v-3.02Zm12.74,5.99v12.58h-3.18v-2.26h-6.23v2.26h-3.18v-12.58h12.59Zm-9.41,7.5h6.23v-4.61h-6.23v4.61Zm19.41-31.8c2.01,1.61,3.65,3.32,4.92,5.12l-2.5,1.43h9.33v3.18h-8.1v9.05h7.74v3.18h-7.74v10.32h8.89v3.18h-21.48v-3.18h9.25v-10.32h-7.82v-3.18h7.82v-9.05h-7.82v-3.18h8.77c-1.01-1.69-2.33-3.3-3.97-4.8l2.7-1.75Z"/><path class="cls-6" d="M995.91,36.84v14.29h3.97v3.18h-3.97v13.34c0,2.67-1.44,4.01-4.33,4.01-1.09,0-2.34-.07-3.77-.2l-.64-3.49c1.61,.34,3.08,.52,4.41,.52,.66,0,.99-.53,.99-1.59v-12.58h-5.76v15.25h-3.18v-15.25h-5.72v15.09h-3.18v-15.09h-5.4v17.67h-3.33v-17.67h-3.49v-3.18h3.49v-14.29h29.89Zm-26.56,14.29h5.4v-11.08h-5.4v11.08Zm8.58,0h5.72v-11.08h-5.72v11.08Zm8.89,0h5.76v-11.08h-5.76v11.08Z"/><path class="cls-6" d="M1005.92,46.25c2.06,1.11,3.97,2.44,5.72,3.97l-2.38,3.02c-1.83-1.75-3.75-3.24-5.76-4.49l2.42-2.5Zm3.97,8.58l2.86,2.06c-1.24,5.13-2.99,10.11-5.24,14.93l-3.33-2.42c2.38-4.63,4.29-9.49,5.72-14.57Zm-2.38-18.58c2.28,1.11,4.33,2.44,6.15,3.97l-2.34,3.02c-1.98-1.75-4.06-3.24-6.23-4.49l2.42-2.5Zm9.05,16.83l3.49,.64c-.08,5.27-.78,9.3-2.1,12.11-1.22,2.54-2.95,4.7-5.2,6.47l-2.1-2.74c1.85-1.59,3.27-3.53,4.25-5.84,1.01-2.33,1.56-5.88,1.67-10.64Zm8.26-17.67h3.65v4.49h10.92v3.02h-13.5l-2.86,5.92c3.39-.21,6.52-.53,9.41-.95-.53-.69-1.13-1.35-1.79-1.99l2.74-1.75c2.41,2.41,4.35,4.96,5.84,7.66l-2.82,1.75c-.53-1.01-1.12-2-1.79-2.98-5.61,1.14-12.16,1.75-19.65,1.83l-.64-3.33c1.64,0,3.23-.01,4.76-.04l3.02-6.11h-7.62v-3.02h10.32v-4.49Zm-1.59,18.3h3.49v16.52h-3.49v-16.52Zm7.15-.32h3.49v13.82c0,.69,.07,1.06,.2,1.11,.11,.11,.36,.16,.75,.16,.87,0,1.4-.21,1.59-.64,.21-.37,.37-1.11,.48-2.22,.11-.74,.21-1.91,.32-3.49l3.18,1.75c-.4,3.79-.97,6.03-1.71,6.75-.16,.4-.64,.66-1.43,.79-.37,.16-1.18,.24-2.42,.24-1.03,0-1.84-.11-2.42-.32-1.35-.16-2.02-1.28-2.02-3.37v-14.57Z"/><path class="cls-6" d="M1057.49,36.24l1.91,2.5c-1.8,.42-3.69,.81-5.68,1.15v5.99h5.52v3.18h-5.52v2.22c2.01,1.99,3.76,3.96,5.24,5.92l-2.06,2.86c-1.06-1.72-2.12-3.28-3.18-4.68v16.59h-3.33v-16.2c-1.4,3.2-3.15,6.1-5.24,8.69l-2.06-2.66c1.35-1.56,2.77-3.71,4.25-6.43,1.14-1.98,2.09-4.09,2.86-6.31h-6.03v-3.18h6.23v-5.52c-1.54,.21-3.14,.41-4.8,.6l-1.59-2.98c4.5-.4,9-.98,13.5-1.75Zm1.91,15.25h20.64v2.98h-8.58v5.08h7.98v2.9h-7.98v5.72h9.25v2.98h-22.39v-2.98h9.96v-5.72h-8.22v-2.9h8.22v-5.08h-8.89v-2.98Zm1.75-14.93h17.31v11.91h-17.31v-11.91Zm3.33,8.85h10.64v-5.84h-10.64v5.84Z"/></g><g><g><circle class="cls-6" cx="948.74" cy="218.54" r="71.29"/><g><path class="cls-1" d="M928.46,177.7c0,2.27-.68,3.91-2.04,4.91-1.18,.87-2.93,1.31-5.23,1.31-3.87,0-5.84-2.26-5.92-6.79h2.67c.04,1.58,.32,2.68,.85,3.3,.58,.69,1.64,1.04,3.16,1.04,1.13,0,2.02-.28,2.67-.85,.78-.64,1.17-1.58,1.17-2.84s-.46-2.09-1.39-2.67c-.27-.18-1.39-.63-3.35-1.34-1.64-.6-2.83-1.24-3.6-1.94-1.13-1.02-1.69-2.34-1.69-3.98,0-1.89,.6-3.39,1.8-4.5,1.15-1.02,2.57-1.53,4.28-1.53,4.11,0,6.2,1.98,6.27,5.94h-2.62c-.07-2.34-1.22-3.52-3.44-3.52-1.13,0-2.02,.29-2.67,.87-.64,.6-.95,1.42-.95,2.45s.35,1.86,1.04,2.43c.4,.35,1.26,.78,2.59,1.31,2.29,.91,3.75,1.6,4.39,2.07,1.34,1.04,2.02,2.47,2.02,4.31Z"/><path class="cls-1" d="M942.37,164.64h-5.26v18.87h-2.56v-18.87h-5.26v-2.45h13.09v2.45Z"/><path class="cls-1" d="M956.05,183.51h-12.51v-21.32h12.1v2.45h-9.54v6.65h9.16v2.45h-9.16v7.31h9.95v2.45Z"/><path class="cls-1" d="M970.07,168.46c0,4.18-2.54,6.27-7.61,6.27h-2.48v8.78h-2.56v-21.32h4.93c5.14,0,7.72,2.09,7.72,6.27Zm-2.62,0c0-2.54-1.28-3.82-3.84-3.82h-3.63v7.61h3.63c2.56,0,3.84-1.26,3.84-3.79Z"/><path class="cls-1" d="M983.64,167.48c0,2.05-1.05,4.4-3.16,7.03-.87,1.13-1.75,2.25-2.62,3.35-.95,1.2-1.91,2.27-2.89,3.22h8.62v2.43h-11.83v-2.43c.73-.85,2.15-2.46,4.28-4.83,1.42-1.54,2.61-3.11,3.57-4.69,1-1.67,1.5-2.98,1.5-3.93,0-2.38-1.09-3.57-3.27-3.57-1.24,0-2.08,.38-2.54,1.15-.31,.58-.45,1.54-.41,2.89h-2.62c.04-2.04,.44-3.55,1.2-4.55,.93-1.15,2.4-1.72,4.42-1.72,1.75,0,3.13,.46,4.14,1.39,1.07,.98,1.61,2.4,1.61,4.25Z"/></g><g><path class="cls-6" d="M906.91,319.52c.86,.06,2.14,.09,3.83,.09s2.82-.03,3.4-.09v1.38c-.57-.06-1.78-.09-3.61-.09s-3.04,.03-3.61,.09v-1.38Zm.6,8.95h5.94c-.06,.86-.09,2.06-.09,3.61s.03,2.67,.09,3.36h-1.55v-1.38h-2.84v1.46h-1.55c.06-1.09,.09-2.37,.09-3.83s-.03-2.54-.09-3.23Zm.09-5.94c.69,.06,1.68,.09,2.97,.09s2.22-.03,2.8-.09v1.38c-.57-.06-1.49-.09-2.75-.09s-2.27,.03-3.01,.09v-1.38Zm0,2.93c.75,.06,1.79,.09,3.14,.09s2.22-.03,2.62-.09v1.38c-.46-.06-1.35-.09-2.67-.09s-2.35,.03-3.1,.09v-1.38Zm1.46,4.22v3.18h2.84v-3.18h-2.84Zm.34-13.08c.52-.17,.97-.34,1.38-.52,.29,.63,.6,1.41,.95,2.32-.69,.23-1.2,.43-1.55,.6-.23-.92-.49-1.72-.77-2.41Zm5.59,3.18c.86,.12,1.89,.17,3.1,.17h4.73c.97,0,1.92-.03,2.84-.09v1.38c-.86-.06-2.41-.09-4.65-.09v4.82c1.89,0,3.27-.03,4.13-.09v1.38c-.86-.06-2.24-.09-4.13-.09v6.2c2.75,0,4.47-.03,5.16-.09v1.46c-.86-.12-1.89-.17-3.1-.17h-5.94c-1.32,0-2.24,.06-2.75,.17v-1.46c.63,.06,2.35,.09,5.16,.09v-6.2c-1.89,0-3.27,.03-4.13,.09v-1.38c.92,.06,2.29,.09,4.13,.09v-4.82c-2.18,0-3.7,.03-4.56,.09v-1.46Zm3.79-3.1c.46-.17,.92-.34,1.38-.52,.34,.75,.69,1.61,1.03,2.58-.46,.12-.98,.32-1.55,.6-.17-.86-.46-1.75-.86-2.67Z"/><path class="cls-6" d="M945.63,325.2c1.03,0,1.81-.03,2.32-.09v1.55c-.52-.06-1.29-.09-2.32-.09v7.49c0,.63-.2,1.06-.6,1.29-.4,.23-1.15,.43-2.24,.6-.17-.63-.43-1.26-.77-1.89,.75,0,1.25-.02,1.51-.04,.26-.03,.42-.36,.47-.99v-14.28h-11.36v16.69h-1.55c.11-.75,.17-1.58,.17-2.5v-6.37c-.86,0-1.63,.03-2.32,.09v-1.55c.74,.06,1.52,.09,2.32,.09v-4.73c0-1.38-.03-2.41-.09-3.1h14.54c-.06,.57-.09,1.61-.09,3.1v4.73Zm-10.41-.09v-6.37h1.63v6.37h2.93v-6.37h1.63v6.37h2.58v1.38h-2.58v8.09h-1.63v-8.09h-2.93v8.17h-1.63v-8.17h-2.58v-1.38h2.58Z"/><path class="cls-6" d="M954.58,316.08c.63,.23,1.32,.43,2.06,.6-.34,.4-.8,1.55-1.38,3.44v11.79c0,1.72,.03,3.07,.09,4.04h-1.81c.11-1.03,.17-2.41,.17-4.13v-8.86c-.63,1.38-1.29,2.58-1.98,3.61-.34-.57-.75-1.03-1.2-1.38,.57-.69,1.32-1.91,2.24-3.66,.92-1.75,1.52-3.57,1.81-5.46Zm2.15,2.84c1.2,.06,3.5,.09,6.88,.09s5.59-.03,6.63-.09v1.46c-1.09-.06-3.3-.09-6.63-.09s-5.62,.03-6.88,.09v-1.46Zm1.38,3.1c1.03,.06,2.85,.09,5.46,.09s4.43-.03,5.46-.09v1.46c-1.03-.06-2.81-.09-5.33-.09s-4.39,.03-5.59,.09v-1.46Zm0,3.01c1.15,.06,3.05,.09,5.72,.09s4.4-.03,5.21-.09v1.46c-.86-.06-2.6-.09-5.21-.09s-4.52,.03-5.72,.09v-1.46Zm.17,3.36h10.58c-.06,.69-.09,1.82-.09,3.4s.03,2.8,.09,3.66h-1.63v-1.55h-7.31v1.81h-1.63c.06-.86,.09-2.06,.09-3.61s-.03-2.78-.09-3.7Zm1.63,1.29v2.93h7.31v-2.93h-7.31Zm1.89-13.08c.52-.17,1.03-.37,1.55-.6,.17,.34,.34,.72,.52,1.12,.17,.4,.34,.83,.52,1.29-.52,.17-1.06,.34-1.63,.52-.4-1.26-.72-2.04-.95-2.32Z"/><path class="cls-6" d="M980.47,317.89c.98,0,1.81-.03,2.5-.09v1.46c-1.15-.06-2.29-.09-3.44-.09,.17,.63,.4,1.26,.69,1.89-.63,.17-1.18,.37-1.63,.6-.12-.69-.32-1.52-.6-2.5h-.95c-.52,.75-1,1.35-1.46,1.81s-.92,.89-1.38,1.29c-.4-.46-.92-.86-1.55-1.2,1.26-.8,2.22-1.71,2.88-2.71,.66-1,1.1-1.82,1.33-2.45,.57,.23,1.26,.46,2.07,.69-.34,.34-.69,.77-1.03,1.29h2.58Zm-7.14,6.97c.97,.06,2.09,.09,3.36,.09,0-.86-.03-1.75-.09-2.67h1.72c-.06,.75-.09,1.63-.09,2.67,.86,0,1.75-.03,2.67-.09v1.38c-.8-.06-1.69-.09-2.67-.09v2.24c.46-.29,.89-.6,1.29-.95,.92,1.09,1.61,2.01,2.06,2.75-.46,.23-.89,.55-1.29,.95-.4-.74-1.09-1.66-2.06-2.75v3.7c0,1.2,.03,2.52,.09,3.96h-1.72c.06-1.43,.09-2.75,.09-3.96v-3.1c-.23,.57-.53,1.22-.9,1.94-.37,.72-1.02,1.68-1.94,2.88-.34-.63-.75-1.12-1.2-1.46,.74-.69,1.45-1.58,2.11-2.67,.66-1.09,1.16-2.27,1.51-3.53-.98,0-1.95,.03-2.93,.09v-1.38Zm8.69-1.72h8.95c-.06,.92-.09,1.72-.09,2.41v6.11c0,1.09,.03,2.47,.09,4.13h-1.63v-1.55h-5.68v1.81h-1.63c.06-1.66,.09-3.01,.09-4.04v-6.28c0-.75-.03-1.61-.09-2.58Zm6.8-3.79c.17,.52,.46,1.18,.86,1.98-.57,.23-1.12,.46-1.63,.69-.17-.8-.4-1.69-.69-2.67h-1.63c-.75,.92-1.32,1.61-1.72,2.06-.57-.34-1.09-.63-1.55-.86,.75-.69,1.35-1.38,1.81-2.06,.46-.69,.89-1.52,1.29-2.5,.57,.17,1.2,.37,1.89,.6-.4,.4-.72,.89-.95,1.46h3.18c.46,0,1.23-.03,2.32-.09v1.46c-1.55-.06-2.61-.09-3.18-.09Zm-5.16,4.99v1.98h5.68v-1.98h-5.68Zm0,3.18v1.98h5.68v-1.98h-5.68Zm0,3.18v2.32h5.68v-2.32h-5.68Z"/><path class="cls-6" d="M896.41,344.75c1.2,.06,2.29,.09,3.27,.09h4.9c0-.97-.03-1.78-.09-2.41h1.81c-.12,.57-.17,1.38-.17,2.41h5.42c.74,0,1.72-.03,2.93-.09v1.63c-1.2-.06-2.18-.09-2.93-.09h-3.18c.69,1.03,1.65,1.89,2.88,2.58,1.23,.69,2.62,1.2,4.17,1.55-.46,.52-.83,1.12-1.12,1.81-1.84-.74-3.34-1.56-4.52-2.45-1.18-.89-2.19-2.05-3.05-3.48h-.6v4.9h5.51c-.06,1.03-.09,2.18-.09,3.44s.03,2.5,.09,3.7h-12.39c.06-1.09,.09-2.29,.09-3.61s-.03-2.5-.09-3.53c-.69,.46-1.46,.92-2.32,1.38-.4-.63-.83-1.18-1.29-1.63,.97-.23,2.12-.73,3.44-1.51,1.32-.77,2.41-1.82,3.27-3.14h-2.67c-.98,0-2.06,.03-3.27,.09v-1.63Zm.17,15.14c1.15,.06,2.18,.09,3.1,.09h11.7c.92,0,1.86-.03,2.84-.09v1.55c-1.03-.06-1.95-.09-2.75-.09h-11.79c-.98,0-2.01,.03-3.1,.09v-1.55Zm7.49-13.59c-.52,.98-1.16,1.85-1.94,2.62s-1.71,1.54-2.8,2.28h5.25v-4.9h-.52Zm-3.18,6.28v1.46h9.12v-1.46h-9.12Zm0,2.84v1.55h9.12v-1.55h-9.12Z"/><path class="cls-6" d="M918.44,345.61h1.81c-.12,.75-.17,1.69-.17,2.84v6.45l2.5-.52v-9.29c0-.8-.03-1.63-.09-2.5h1.81c-.12,.69-.17,1.49-.17,2.41v14.28c0,.75,.03,1.69,.09,2.84h-1.72c.06-1.15,.09-2.09,.09-2.84v-3.44c-2.35,.69-3.67,1.18-3.96,1.46-.29-.57-.6-1.12-.95-1.63,.57-.29,.86-.8,.86-1.55v-6.11c0-.8-.03-1.6-.09-2.41Zm10.33-2.84c.74,.29,1.49,.52,2.24,.69-.4,.52-.75,1.12-1.03,1.81-.29,.69-.52,1.29-.69,1.81h4.82c1.15,0,2.24-.03,3.27-.09v1.63c-1.03-.06-1.95-.09-2.75-.09-.12,1.78-.4,3.4-.86,4.86-.46,1.46-1.03,2.8-1.72,4,.69,.75,1.46,1.33,2.32,1.76s1.78,.79,2.75,1.08c-.86,.29-1.41,.83-1.63,1.63-.92-.4-1.72-.85-2.41-1.33-.69-.49-1.41-1.1-2.15-1.85-1.38,1.49-2.87,2.7-4.47,3.61-.34-.57-.86-1.03-1.55-1.38,1.83-.75,3.47-1.89,4.9-3.44-.57-.92-1.03-1.88-1.38-2.88-.34-1-.63-2.11-.86-3.31-.46,.86-.86,1.49-1.2,1.89-.4-.4-.92-.69-1.55-.86,.92-1.15,1.76-2.68,2.54-4.6,.77-1.92,1.25-3.57,1.42-4.95Zm0,5.77c-.34,.75-.69,1.49-1.03,2.24,.52-.06,1.06-.17,1.63-.34,0,.86,.14,1.79,.43,2.8,.29,1,.66,1.94,1.12,2.8,1.15-2.06,1.84-4.56,2.06-7.49h-4.22Z"/><path class="cls-6" d="M939.86,345.61c.86,.06,2.07,.09,3.61,.09s2.75-.03,3.61-.09v1.38c-.69-.11-1.85-.17-3.48-.17s-2.88,.06-3.74,.17v-1.38Zm.43,9.21h6.28c-.12,.52-.17,1.59-.17,3.23s.03,2.85,.09,3.66h-1.63v-1.55h-2.93v1.81h-1.63c.06-.8,.09-2.05,.09-3.74s-.03-2.82-.09-3.4Zm.26-6.11c.86,.06,1.88,.09,3.05,.09s2.11-.03,2.8-.09v1.29c-.63-.06-1.54-.09-2.71-.09s-2.22,.03-3.14,.09v-1.29Zm.09,2.93c.75,.06,1.72,.09,2.93,.09s2.15-.03,2.84-.09v1.29c-.4-.06-1.25-.09-2.54-.09s-2.37,.03-3.23,.09v-1.29Zm1.29,4.3v3.1h2.93v-3.1h-2.93Zm2.84-11.62c-.46,.34-.89,.63-1.29,.86-.4-.69-.8-1.35-1.2-1.98,.4-.29,.8-.54,1.2-.77,.52,.69,.95,1.32,1.29,1.89Zm3.79,16.61c-.57-.23-1.06-.34-1.46-.34,.29-1.09,.47-2.15,.56-3.18,.09-1.03,.13-1.75,.13-2.15l1.46,.26c-.06,.17-.14,.77-.26,1.81-.12,1.03-.26,2.24-.43,3.61Zm.26-14.97c.46,.12,1,.26,1.63,.43-.23,.34-.44,.85-.65,1.51-.2,.66-.42,1.33-.65,2.02-.52-.23-1.03-.4-1.55-.52,.29-.63,.52-1.18,.69-1.63,.17-.46,.34-1.06,.52-1.81Zm1.38,6.88c-.52-.46-1.03-.8-1.55-1.03,.75-.4,1.33-.87,1.76-1.42,.43-.54,.8-1.28,1.12-2.19,.31-.92,.53-2.12,.65-3.61-1.32,0-2.5,.03-3.53,.09v-1.38c1.03,.06,2.01,.09,2.93,.09h6.97c-.12,.69-.2,1.38-.26,2.06-.06,.69-.12,1.49-.17,2.41-.06,.92-.16,1.75-.3,2.5-.14,.75-.52,1.25-1.12,1.51-.6,.26-1.31,.42-2.11,.47-.06-.52-.29-1.15-.69-1.89,.86,.12,1.45,.13,1.76,.04,.31-.09,.53-.3,.65-.65,.11-.34,.21-.92,.3-1.72,.09-.8,.16-1.98,.22-3.53h-3.18c-.12,1.43-.3,2.65-.56,3.66-.26,1-.6,1.85-1.03,2.54-.43,.69-1.05,1.38-1.85,2.06Zm-.34,1.98h1.81c-.17,.63-.23,1.32-.17,2.07v2.32c0,.8,.27,1.23,.82,1.29,.54,.06,1.06,.09,1.55,.09s.86-.13,1.12-.39c.26-.26,.42-.99,.47-2.19,.4,.23,.98,.43,1.72,.6-.29,1.38-.59,2.27-.9,2.67-.32,.4-.82,.6-1.51,.6h-3.01c-1.2,0-1.81-.6-1.81-1.81v-3.01c0-.8-.03-1.55-.09-2.24Zm1.72-.86c.46-.29,.86-.54,1.2-.77,.57,.98,1.17,2.04,1.81,3.18-.57,.34-1,.66-1.29,.95-.4-1.15-.98-2.27-1.72-3.36Zm7.74,4.13c-.52,.34-.98,.69-1.38,1.03-.69-1.6-1.52-3.04-2.5-4.3,.34-.17,.72-.43,1.12-.77,.8,1.09,1.72,2.44,2.75,4.04Z"/><path class="cls-6" d="M961.72,345.53c.92,.06,2.09,.09,3.53,.09s2.55-.03,3.36-.09v1.38c-.8-.06-1.97-.09-3.48-.09s-2.65,.03-3.4,.09v-1.38Zm.26,9.12h6.11c-.12,.63-.17,1.75-.17,3.36s.03,2.84,.09,3.7h-1.46v-1.55h-3.1v1.81h-1.46c.06-.86,.09-2.14,.09-3.83s-.03-2.85-.09-3.48Zm.34-6.11c.74,.06,1.66,.09,2.75,.09s2.04-.03,2.84-.09v1.38c-.75-.06-1.66-.09-2.75-.09s-2.04,.03-2.84,.09v-1.38Zm0,3.01c.8,.06,1.78,.09,2.93,.09s2.04-.03,2.67-.09v1.38c-.69-.06-1.59-.09-2.71-.09s-2.08,.03-2.88,.09v-1.38Zm1.12,4.3v3.1h3.1v-3.1h-3.1Zm.26-12.56c.4-.34,.77-.6,1.12-.77,.52,.63,1,1.26,1.46,1.89-.52,.34-.92,.66-1.2,.95-.46-.69-.92-1.38-1.38-2.06Zm9.12,5.25c.23,.06,.86,.09,1.89,.09s1.72-.03,2.06-.09c-.46-.92-.8-1.78-1.03-2.58-.23-.8-.43-1.92-.6-3.36,.4-.11,.83-.2,1.29-.26,.11,1.26,.29,2.27,.52,3.01,.34-.23,.69-.49,1.03-.77,.34-.29,.72-.69,1.12-1.2l1.03,1.29c-.52,.23-.98,.5-1.38,.82-.4,.32-.89,.67-1.46,1.08,.17,.52,.43,1.03,.77,1.55,.34-.23,.72-.5,1.12-.82,.4-.31,.83-.7,1.29-1.16l.95,1.46c-.57,.12-1.09,.33-1.55,.65-.46,.32-.86,.59-1.2,.82,.63,.98,1.61,1.63,2.93,1.98-.57,.4-.98,.86-1.2,1.38-1.2-.57-2.24-1.58-3.1-3.01v.52c-.57-.06-1.43-.09-2.58-.09s-1.92,.03-2.32,.09v-.6c-.63,1.03-1.58,2.12-2.84,3.27-.29-.46-.72-.83-1.29-1.12,1.26-.74,2.27-1.69,3.01-2.84-.69-.69-1.43-1.26-2.24-1.72,.29-.46,.57-.86,.86-1.2,.63,.52,1.32,1.09,2.07,1.72,.4-.92,.72-1.89,.95-2.93-1.61,0-2.84,.03-3.7,.09v-1.38c.97,.06,1.86,.09,2.67,.09h2.58c-.34,2.12-.89,3.87-1.63,5.25Zm3.96,8.69c.46,.17,1.03,.4,1.72,.69-.34,.23-.6,.59-.77,1.08-.17,.49-.34,.9-.52,1.25,1.38,0,2.5-.06,3.36-.17v1.55c-.86-.12-2.8-.17-5.81-.17s-4.83,.06-5.46,.17v-1.46c.74,.06,2.93,.09,6.54,.09,.46-1.26,.77-2.27,.95-3.01Zm1.98-5.68c-.06,.92-.09,1.79-.09,2.62s.03,1.74,.09,2.71h-7.74c.06-.92,.09-1.81,.09-2.67s-.03-1.75-.09-2.67h7.74Zm-7.31,6.28c.4-.29,.8-.49,1.2-.6,.34,.75,.69,1.55,1.03,2.41-.46,.12-.92,.29-1.38,.52-.23-.8-.52-1.58-.86-2.32Zm1.03-4.99v2.75h4.82v-2.75h-4.82Z"/><path class="cls-6" d="M987.62,342.51c.63,.23,1.32,.43,2.06,.6-.34,.4-.8,1.55-1.38,3.44v11.79c0,1.72,.03,3.07,.09,4.04h-1.81c.11-1.03,.17-2.41,.17-4.13v-8.86c-.63,1.38-1.29,2.58-1.98,3.61-.34-.57-.75-1.03-1.2-1.38,.57-.69,1.32-1.91,2.24-3.66,.92-1.75,1.52-3.57,1.81-5.46Zm2.15,2.84c1.2,.06,3.5,.09,6.88,.09s5.59-.03,6.63-.09v1.46c-1.09-.06-3.3-.09-6.63-.09s-5.62,.03-6.88,.09v-1.46Zm1.38,3.1c1.03,.06,2.85,.09,5.46,.09s4.43-.03,5.46-.09v1.46c-1.03-.06-2.81-.09-5.33-.09s-4.39,.03-5.59,.09v-1.46Zm0,3.01c1.15,.06,3.05,.09,5.72,.09s4.4-.03,5.21-.09v1.46c-.86-.06-2.6-.09-5.21-.09s-4.52,.03-5.72,.09v-1.46Zm.17,3.36h10.58c-.06,.69-.09,1.82-.09,3.4s.03,2.8,.09,3.66h-1.63v-1.55h-7.31v1.81h-1.63c.06-.86,.09-2.06,.09-3.61s-.03-2.78-.09-3.7Zm1.63,1.29v2.93h7.31v-2.93h-7.31Zm1.89-13.08c.52-.17,1.03-.37,1.55-.6,.17,.34,.34,.72,.52,1.12,.17,.4,.34,.83,.52,1.29-.52,.17-1.06,.34-1.63,.52-.4-1.26-.72-2.04-.95-2.32Z"/></g><g><path class="cls-1" d="M994.38,239.02c-.35,1.27-.66,2.55-1.08,3.79-.14,.42-.55,.82-.94,1.05-.31,.18-.84,.21-1.17,.06-.17-.08-.18-.68-.14-1.03,.17-1.45,.51-2.89,.54-4.34,.02-.78-.35-1.62-.7-2.36-.28-.59-.41-1.1,.17-1.45,.54-.32,1.14-.49,1.67,.17,.95,1.19,1.52,2.49,1.65,4.1Z"/><path class="cls-1" d="M986.92,238.75c-.31,1.11-.53,2.12-.89,3.09-.14,.38-.55,.74-.92,.92-.73,.33-1.13,0-1.08-.79,.04-.63,.21-1.25,.17-1.87-.07-1.21-.32-2.4-.36-3.61-.02-.47,.19-1.13,.53-1.37,.56-.4,1.28-.21,1.56,.5,.39,1.02,.66,2.1,.99,3.15Z"/><path class="cls-1" d="M977.69,237.83c-1.11-3.31-2.29-6.6-3.34-9.93-1-3.16-1.85-6.37-2.81-9.54-.81-2.68-1.63-5.35-2.53-8-.3-.87-.76-1.75-1.38-2.43-.41-.45-1.26-.81-1.84-.73-2.97,.42-5.95,.89-8.88,1.55-5.73,1.3-11.4,2.85-17.13,4.1-6.25,1.36-12.16,3.72-18.15,5.84-.51,.18-1.17,.66-1.28,1.11-.28,1.17-.55,2.44-.36,3.6,1.53,9.16,3.77,18.14,6.96,26.88,.83,2.28,.8,2.29,3.29,2.54,.86-.14,1.75-.18,2.56-.45,2.45-.81,4.83-1.84,7.31-2.54,6.36-1.79,12.75-3.45,19.13-5.16,3.21-.86,6.44-1.61,9.63-2.55,2.68-.79,5.29-1.81,7.95-2.67,1.12-.36,1.25-.5,.88-1.62Zm-53.84-18.17c6.86-2.63,13.84-4.82,21.11-6.11,4.08-.73,8.05-2.09,12.11-2.99,2.48-.54,5.03-.74,7.55-1.08l.22,.31c-3.66,5.3-7.31,10.6-10.97,15.89h0s-4.37,6.5-4.68,7.61c-.16,.57-.47,.78-.95,.65-.19-.05-.33-.13-.33-.13l-9.69-4.33c-.14-.01-.29-.07-.45-.16-.11-.06-.23-.13-.34-.19h0s0,0,0,0c-3.77-2.13-7.52-4.29-11.28-6.44-1.23-.7-2.45-1.42-3.98-2.3,.68-.3,1.16-.53,1.66-.72Zm50.07,18.6c-4.83,1.89-9.78,3.3-14.84,4.46-5.85,1.35-11.63,3.02-17.4,4.69-2.84,.82-5.59,1.99-8.4,2.91-.98,.32-2.05,.37-3.08,.5-.72,.09-1.13-.3-1.25-.98-.72-4.18-2.59-8.02-3.5-12.15-.99-4.47-1.94-8.95-2.89-13.43-.06-.28,.07-.59,.11-.89,.32,.07,.7,.05,.97,.21,1.75,1.09,3.43,2.29,5.22,3.32,2.57,1.48,5.16,2.95,7.84,4.2,.16,.07,.32,.14,.49,.21h-.03s10.1,4.44,10.1,4.44c.17,.08,.34,.16,.51,.23,.09,.04,.18,.08,.27,.11h.01s0,0,0,0c1.55,.58,2.45,.08,3.07-1.59l6.09-9.85h0c2.78-3.89,5.46-7.85,8.2-11.78,.33-.47,.72-.89,1.08-1.33,.13,.04,.27,.07,.4,.11,.84,2.47,1.71,4.93,2.5,7.41,1.1,3.49,2.12,7.01,3.21,10.51,.71,2.3,1.46,4.59,2.23,6.86,.33,.98,.03,1.43-.92,1.8Z"/></g><circle class="cls-3" cx="948.74" cy="218.54" r="82.82"/></g><g><g><path class="cls-2" d="M1176.5,319.52c.86,.06,2.14,.09,3.83,.09s2.82-.03,3.4-.09v1.38c-.57-.06-1.78-.09-3.61-.09s-3.04,.03-3.61,.09v-1.38Zm.6,8.95h5.94c-.06,.86-.09,2.06-.09,3.61s.03,2.67,.09,3.36h-1.55v-1.38h-2.84v1.46h-1.55c.06-1.09,.09-2.37,.09-3.83s-.03-2.54-.09-3.23Zm.09-5.94c.69,.06,1.68,.09,2.97,.09s2.22-.03,2.8-.09v1.38c-.57-.06-1.49-.09-2.75-.09s-2.27,.03-3.01,.09v-1.38Zm0,2.93c.75,.06,1.79,.09,3.14,.09s2.22-.03,2.62-.09v1.38c-.46-.06-1.35-.09-2.67-.09s-2.35,.03-3.1,.09v-1.38Zm1.46,4.22v3.18h2.84v-3.18h-2.84Zm.34-13.08c.52-.17,.97-.34,1.38-.52,.29,.63,.6,1.41,.95,2.32-.69,.23-1.2,.43-1.55,.6-.23-.92-.49-1.72-.77-2.41Zm5.59,3.18c.86,.12,1.89,.17,3.1,.17h4.73c.97,0,1.92-.03,2.84-.09v1.38c-.86-.06-2.41-.09-4.65-.09v4.82c1.89,0,3.27-.03,4.13-.09v1.38c-.86-.06-2.24-.09-4.13-.09v6.2c2.75,0,4.47-.03,5.16-.09v1.46c-.86-.12-1.89-.17-3.1-.17h-5.94c-1.32,0-2.24,.06-2.75,.17v-1.46c.63,.06,2.35,.09,5.16,.09v-6.2c-1.89,0-3.27,.03-4.13,.09v-1.38c.92,.06,2.29,.09,4.13,.09v-4.82c-2.18,0-3.7,.03-4.56,.09v-1.46Zm3.79-3.1c.46-.17,.92-.34,1.38-.52,.34,.75,.69,1.61,1.03,2.58-.46,.12-.98,.32-1.55,.6-.17-.86-.46-1.75-.86-2.67Z"/><path class="cls-2" d="M1215.22,325.2c1.03,0,1.81-.03,2.32-.09v1.55c-.52-.06-1.29-.09-2.32-.09v7.49c0,.63-.2,1.06-.6,1.29-.4,.23-1.15,.43-2.24,.6-.17-.63-.43-1.26-.77-1.89,.75,0,1.25-.02,1.51-.04,.26-.03,.42-.36,.47-.99v-14.28h-11.36v16.69h-1.55c.11-.75,.17-1.58,.17-2.5v-6.37c-.86,0-1.63,.03-2.32,.09v-1.55c.74,.06,1.52,.09,2.32,.09v-4.73c0-1.38-.03-2.41-.09-3.1h14.54c-.06,.57-.09,1.61-.09,3.1v4.73Zm-10.41-.09v-6.37h1.63v6.37h2.93v-6.37h1.63v6.37h2.58v1.38h-2.58v8.09h-1.63v-8.09h-2.93v8.17h-1.63v-8.17h-2.58v-1.38h2.58Z"/><path class="cls-2" d="M1222.62,319.87h8c-.06-.52-.14-1.92-.26-4.22,.69,.12,1.38,.2,2.06,.26-.17,.75-.2,2.06-.09,3.96h2.93c1.21,0,2.5-.03,3.87-.09v1.63c-1.38-.06-2.67-.09-3.87-.09h-2.84c.11,1.43,.26,2.68,.43,3.74,.17,1.06,.49,2.19,.95,3.4,.86-1.61,1.52-3.47,1.98-5.59,.74,.34,1.4,.6,1.98,.77-.46,.75-.83,1.59-1.12,2.54-.29,.95-.95,2.34-1.98,4.17,1.49,2.07,2.39,3.1,2.71,3.1s.59-.72,.82-2.15c.63,.69,1.23,1.12,1.81,1.29-.69,1.83-1.25,2.85-1.68,3.05-.43,.2-.92,.11-1.46-.26-.55-.37-1.08-.83-1.59-1.38-.52-.54-1.09-1.3-1.72-2.28-1.49,1.78-3.04,3.18-4.65,4.22-.34-.57-.8-1.09-1.38-1.55,1.09-.46,2.05-1.05,2.88-1.76,.83-.72,1.56-1.53,2.19-2.45-.46-1.2-.83-2.44-1.12-3.7-.29-1.26-.55-2.98-.77-5.16h-6.37v3.18h4.9c-.06,.86-.09,1.86-.09,3.01v2.41c0,1.09-.3,1.78-.9,2.06-.6,.29-1.42,.52-2.45,.69-.12-.69-.32-1.35-.6-1.98,1.32,.12,2.05,.04,2.19-.21,.14-.26,.21-.67,.21-1.25v-3.27h-3.27c0,2.18-.17,3.94-.52,5.29-.34,1.35-.98,2.8-1.89,4.35-.63-.46-1.26-.77-1.89-.95,.69-.8,1.22-1.62,1.59-2.45,.37-.83,.63-1.76,.77-2.8,.14-1.03,.23-2.42,.26-4.17,.03-1.75,.01-3.54-.04-5.38Zm11.87-3.1c.57-.23,1.12-.52,1.63-.86,.52,.92,.97,1.75,1.38,2.5-.57,.29-1.12,.6-1.63,.95-.29-.75-.75-1.61-1.38-2.58Z"/><path class="cls-2" d="M1247.23,329.68c.69-.17,1.26-.31,1.72-.43,.46-.11,.97-.26,1.55-.43v1.55c-.8,.17-1.54,.33-2.19,.47-.66,.14-1.32,.3-1.98,.47-.66,.17-1.28,.36-1.85,.56-.57,.2-1.18,.42-1.81,.65-.17-.69-.34-1.32-.52-1.89,.63-.11,1.2-.22,1.72-.3s1.09-.19,1.72-.3v-9.29h-.69c-.69,0-1.43,.03-2.24,.09v-1.63c.74,.06,1.49,.09,2.24,.09h3.1c.8,0,1.52-.03,2.15-.09v1.63c-.69-.06-1.38-.09-2.07-.09h-.86v8.95Zm13.85-8.52c-.12,.8-.23,1.86-.34,3.18l-.6,8.86c-.06,1.03-.5,1.65-1.33,1.85-.83,.2-1.71,.39-2.62,.56-.17-.75-.46-1.46-.86-2.15,1.2,0,2.04-.04,2.5-.13,.46-.09,.69-.39,.69-.9l.69-9.81h-3.53c-.06,1.72-.2,3.26-.43,4.6-.23,1.35-.62,2.57-1.16,3.66-.55,1.09-1.2,2.02-1.98,2.8-.77,.77-1.65,1.51-2.62,2.19-.4-.57-.95-1.06-1.63-1.46,1.2-.57,2.19-1.22,2.97-1.94,.77-.72,1.39-1.55,1.85-2.5,.46-.95,.79-2.01,.99-3.18,.2-1.17,.33-2.57,.39-4.17h-1.38c-.69,0-1.38,.03-2.06,.09v-1.63c.74,.06,1.49,.09,2.24,.09h1.2c0-1.2-.01-2.18-.04-2.93-.03-.74-.07-1.46-.13-2.15,.57,.12,1.29,.23,2.15,.34-.17,.46-.27,1.12-.3,1.98-.03,.86-.04,1.78-.04,2.75h5.42Z"/><path class="cls-2" d="M1138.56,347.25c.46,.06,.97,.14,1.55,.26-.29,2.35-.52,4.19-.69,5.51-.63-.11-1.18-.2-1.63-.26,.23-1.15,.49-2.98,.77-5.51Zm2.58-4.73h1.72c-.06,.92-.09,2.01-.09,3.27v12.22c0,1.43,.03,2.84,.09,4.22h-1.72c.06-1.38,.09-2.78,.09-4.22v-12.22c0-1.2-.03-2.29-.09-3.27Zm2.32,5.16c.34-.23,.75-.49,1.2-.77,.57,1.2,1.06,2.32,1.46,3.36-.46,.17-.98,.4-1.55,.69-.23-1.09-.6-2.18-1.12-3.27Zm2.58-1.72c1.03,.06,2.12,.09,3.27,.09,0-1.2-.03-2.41-.09-3.61,.52,.17,1.12,.29,1.81,.34-.17,.86-.23,1.95-.17,3.27h4.3c-.06,1.09-.09,2.01-.09,2.75v3.61c.74,0,1.43-.03,2.06-.09v1.55c-.8-.06-1.86-.09-3.18-.09h-2.67c.74,2.12,1.65,3.67,2.71,4.65,1.06,.98,2.28,1.69,3.66,2.15-.92,.52-1.43,1-1.55,1.46-.92-.52-1.72-1.06-2.41-1.64s-1.28-1.19-1.76-1.85c-.49-.66-.96-1.82-1.42-3.48-.57,1.66-1.32,3.08-2.24,4.26-.92,1.17-2.04,2.19-3.36,3.05-.29-.52-.72-1.03-1.29-1.55,1.32-.52,2.31-1.15,2.97-1.89,.66-.75,1.23-1.62,1.72-2.62,.49-1,.79-1.85,.9-2.54-1.43,0-2.87,.03-4.3,.09v-1.55c1.49,.06,2.95,.09,4.39,.09v-4.99c-1.32,0-2.41,.03-3.27,.09v-1.55Zm4.82,1.46v4.99h2.67v-4.99h-2.67Z"/><path class="cls-2" d="M1159.55,362.22c.17-.52,.34-1.13,.52-1.85,.17-.72,.31-1.36,.43-1.94,.46,.12,.89,.2,1.29,.26-.17,.17-.34,.67-.52,1.51-.17,.83-.37,1.62-.6,2.37-.46-.17-.83-.29-1.12-.34Zm.6-4.3c-.17-.57-.34-1.12-.52-1.63,.74,0,1.45-.03,2.11-.09,.66-.06,1.33-.11,2.02-.17v-1.55h-1.55c-.52,0-1.2,.03-2.06,.09v-1.29c.92,.06,1.61,.09,2.06,.09h1.55v-1.63h-3.44c.06-1.2,.09-2.27,.09-3.18v-2.06c0-.86-.03-1.89-.09-3.1h8.26c-.06,1.09-.09,2.12-.09,3.1v2.06c0,.92,.03,1.98,.09,3.18h-3.53v1.63h1.12c.69,0,1.46-.03,2.32-.09v1.29c-.86-.06-1.61-.09-2.24-.09h-1.2v1.55c.52-.06,1.08-.11,1.68-.17,.6-.06,1.25-.14,1.94-.26-.12,.46-.17,.89-.17,1.29-.57,0-1.2,.03-1.89,.09-.69,.06-1.39,.13-2.11,.21-.72,.09-1.46,.19-2.24,.3-.77,.12-1.48,.26-2.11,.43Zm1.55-13.42v6.11h2.06v-1.63c-.4,.12-.72,.26-.95,.43-.34-.97-.69-1.86-1.03-2.67,.29-.17,.63-.34,1.03-.52,.46,1.32,.77,2.21,.95,2.67v-4.39h-2.06Zm.69,14.28c.4-.06,.77-.09,1.12-.09,.17,1.26,.31,2.38,.43,3.36-.4,0-.77,.06-1.12,.17-.06-.98-.2-2.12-.43-3.44Zm2.24-.09c.34-.06,.72-.11,1.12-.17,.23,1.55,.4,2.64,.52,3.27-.4,.06-.77,.11-1.12,.17-.12-.92-.29-2.01-.52-3.27Zm.43-14.2v6.11h2.15v-6.11h-2.15Zm.86,1.72c.34,.12,.74,.23,1.2,.34-.17,.23-.33,.59-.47,1.08-.14,.49-.3,1.05-.47,1.68-.52-.17-.86-.26-1.03-.26,.34-1.03,.6-1.98,.77-2.84Zm.86,12.3c.29-.11,.66-.23,1.12-.34,.17,.69,.54,1.89,1.12,3.61-.46,.06-.89,.17-1.29,.34-.23-1.09-.55-2.29-.95-3.61Zm5.94-15.49h1.55c-.12,.69-.17,1.43-.17,2.24v1.55h2.75c.74,0,1.55-.03,2.41-.09v1.29c-.86-.06-1.66-.09-2.41-.09h-2.75v4.47h3.96c-.06,.8-.09,1.72-.09,2.75v3.96c0,.92,.03,1.89,.09,2.93h-1.38v-1.64h-5.76v1.81h-1.38c.06-1.15,.09-2.18,.09-3.1v-3.96c0-1.03-.03-1.95-.09-2.75h3.27v-6.97c0-.92-.03-1.72-.09-2.41Zm-1.81,10.5v5.77h5.76v-5.77h-5.76Z"/><path class="cls-2" d="M1191.73,347.16c-.12,.52-.17,1.09-.17,1.72l-.6,10.5c-.06,1.03-.49,1.66-1.29,1.89-.8,.23-1.52,.4-2.15,.52-.12-.69-.34-1.35-.69-1.98,.92,.06,1.58,.04,1.98-.04,.4-.09,.63-.44,.69-1.08l.6-10.07h-2.84c-.17,2.24-.4,4.06-.69,5.46-.29,1.41-.62,2.54-.99,3.4-.37,.86-.76,1.62-1.16,2.28-.4,.66-.83,1.33-1.29,2.02-.34-.46-.86-.89-1.55-1.29,.92-.92,1.65-1.94,2.19-3.05,.54-1.12,.95-2.24,1.2-3.36,.26-1.12,.42-2.04,.47-2.75,.06-.72,.11-1.62,.17-2.71h-1.29c-.63,0-1.29,.03-1.98,.09v-1.72c.63,.12,1.35,.17,2.15,.17h1.2c.06-1.2,.09-1.94,.09-2.19s-.03-.93-.09-2.02c.52,.12,1.2,.17,2.06,.17-.17,.4-.29,.89-.34,1.46-.06,.57-.12,1.43-.17,2.58h4.47Zm1.72-.6h6.97c-.06,1.09-.09,2.21-.09,3.36v6.97c0,1.26,.03,2.61,.09,4.04h-1.63v-1.89h-3.7v2.24h-1.63c.06-1.09,.09-2.18,.09-3.27v-8.09c0-1.09-.03-2.21-.09-3.36Zm1.63,1.46v9.46h3.7v-9.46h-3.7Z"/><path class="cls-2" d="M1223.74,359.12c-.8,.46-1.32,1.12-1.55,1.98-1.38-.92-2.7-2.06-3.96-3.44-1.26-1.38-2.64-4.01-4.13-7.92-1.55,4.59-4.45,8.43-8.69,11.53-.29-.57-.86-1.09-1.72-1.55,3.73-1.72,6.85-5.56,9.38-11.53-.17-.46-.69-1.12-1.55-1.98-.86-.86-1.72-1.46-2.58-1.81,.57-.46,1.03-.95,1.38-1.46,1.43,1.03,2.58,2.02,3.44,2.97,.86,.95,1.94,2.98,3.23,6.11,1.29,3.13,3.54,5.49,6.75,7.1Z"/><path class="cls-2" d="M1226.49,345.87c.86,.12,2.21,.17,4.04,.17s3.15-.06,3.96-.17v1.55c-.86-.06-2.21-.09-4.04-.09s-3.16,.03-3.96,.09v-1.55Zm.6,9.12h6.37c-.06,.98-.09,2.19-.09,3.66s.03,2.59,.09,3.4h-1.55v-1.38h-3.27v1.46h-1.55c.06-1.43,.09-2.68,.09-3.74s-.03-2.19-.09-3.4Zm.09-5.85c.69,.06,1.73,.09,3.14,.09s2.42-.03,3.05-.09v1.38c-.63-.06-1.62-.09-2.97-.09s-2.42,.03-3.23,.09v-1.38Zm0,2.84c.69,.06,1.73,.09,3.14,.09s2.42-.03,3.05-.09v1.38c-.46-.06-1.42-.09-2.88-.09s-2.57,.03-3.31,.09v-1.38Zm1.46,4.22v3.27h3.27v-3.27h-3.27Zm.52-13.16l1.46-.69c.34,.75,.69,1.61,1.03,2.58-.46,.17-.95,.37-1.46,.6-.34-.97-.69-1.81-1.03-2.5Zm6.2,4.56c1.49,.06,3.36,.09,5.59,.09,0-2.12-.03-3.76-.09-4.9h1.63c-.06,1.15-.09,2.78-.09,4.9,1.2,0,2.18-.03,2.93-.09v1.38c-.8-.06-1.78-.09-2.93-.09v11.1c0,.92-.3,1.51-.9,1.76-.6,.26-1.51,.42-2.71,.47-.12-.69-.34-1.35-.69-1.98,1.2,.06,1.98,.04,2.32-.04,.34-.09,.52-.42,.52-.99v-10.32c-2.18,0-4.04,.06-5.59,.17v-1.46Zm.86,4.39c.46-.23,.89-.43,1.29-.6,.52,1.2,.97,2.47,1.38,3.79-.52,.17-1,.37-1.46,.6-.34-1.38-.75-2.64-1.2-3.79Z"/><path class="cls-2" d="M1248.26,345.61c.8,.06,1.94,.09,3.4,.09s2.62-.03,3.48-.09v1.46c-.86-.11-2.02-.17-3.48-.17s-2.6,.06-3.4,.17v-1.46Zm.52,9.29h5.77c-.06,.69-.09,1.82-.09,3.4s.03,2.77,.09,3.57h-1.46v-1.55h-2.84v1.81h-1.46c.06-1.49,.09-2.93,.09-4.3s-.03-2.35-.09-2.93Zm.09-6.11c.86,.06,1.81,.09,2.84,.09s1.95-.03,2.75-.09v1.29c-.8-.06-1.71-.09-2.71-.09s-1.97,.03-2.88,.09v-1.29Zm0,2.93c.92,.06,1.92,.09,3.01,.09s1.95-.03,2.58-.09v1.29c-.69-.06-1.56-.09-2.62-.09s-2.05,.03-2.97,.09v-1.29Zm1.38,4.3v3.18h2.84v-3.18h-2.84Zm2.67-11.62c-.4,.29-.8,.52-1.2,.69-.34-.63-.72-1.26-1.12-1.89,.34-.29,.72-.54,1.12-.77,.52,.69,.92,1.35,1.2,1.98Zm6.02,4.13c-.8,.92-1.72,1.78-2.75,2.58-.4-.52-.83-.92-1.29-1.2,1.26-.69,2.29-1.52,3.1-2.5,.8-.97,1.41-1.85,1.81-2.62,.4-.77,.72-1.51,.95-2.19l1.89,.77c-.29,.23-.49,.49-.6,.77,.97,1.49,1.92,2.58,2.84,3.27,.92,.69,1.92,1.26,3.01,1.72-.46,.57-.8,1.06-1.03,1.46-1.09-.69-1.95-1.32-2.58-1.89v1.03c-.52-.06-1.42-.09-2.71-.09s-2.17,.03-2.62,.09v-1.2Zm5.68,13.68c-.17-.57-.37-1.12-.6-1.63,.46,.06,.79,.06,.99,0,.2-.06,.33-.26,.39-.6v-3.1h-1.72v4.3h-1.29v-4.3h-1.46v4.3h-1.29v-4.3h-1.64v4.99h-1.55c.06-.98,.1-2.78,.13-5.42,.03-2.64-.01-4.3-.13-4.99h10.41c-.06,.69-.09,1.72-.09,3.1v5.59c.06,.8-.07,1.32-.39,1.55-.32,.23-.9,.4-1.76,.52Zm-6.63-9.64v3.18h1.64v-3.18h-1.64Zm.95-4.13c.52,.06,1.4,.09,2.67,.09s2.07-.03,2.41-.09c-1.09-.97-2.01-2.15-2.75-3.53-.75,1.49-1.52,2.67-2.32,3.53Zm1.98,4.13v3.18h1.46v-3.18h-1.46Zm2.75,0v3.18h1.72v-3.18h-1.72Z"/><path class="cls-2" d="M1270.72,344.67h5.51c-.06,.57-.09,2.57-.09,5.98s.03,5.75,.09,7.01h-1.63v-1.64h-2.24v3.1h-1.63c.06-1.15,.09-3.54,.09-7.18s-.03-6.07-.09-7.27Zm1.63,1.38v8.6h2.24v-8.6h-2.24Zm5.94-2.06h9.81c-.06,.8-.09,2.58-.09,5.33s.03,4.59,.09,5.51h-1.63v-1.46h-6.54v4.82c0,1.2,.6,1.81,1.81,1.81h4.04c.69,0,1.13-.14,1.33-.43,.2-.29,.36-1.06,.47-2.32,.57,.57,1.23,.92,1.98,1.03-.4,1.38-.76,2.25-1.08,2.62-.32,.37-.82,.56-1.51,.56h-6.02c-1.72,0-2.58-.89-2.58-2.67v-11.53c0-1.32-.03-2.41-.09-3.27Zm1.63,1.38v6.62h2.5v-6.62h-2.5Zm4.04,0v6.62h2.5v-6.62h-2.5Z"/><path class="cls-2" d="M1297.39,345.18l-.52,9.72h-1.38l-.52-9.72h2.41Zm-.26,14.71h-1.89v-1.89h1.89v1.89Z"/></g><g><circle class="cls-1" cx="1218.17" cy="218.64" r="71.29"/><g><path class="cls-10" d="M1196.93,177.7c0,2.27-.68,3.91-2.04,4.91-1.18,.87-2.93,1.31-5.23,1.31-3.87,0-5.84-2.26-5.92-6.79h2.67c.04,1.58,.32,2.68,.85,3.3,.58,.69,1.64,1.04,3.16,1.04,1.13,0,2.02-.28,2.67-.85,.78-.64,1.17-1.58,1.17-2.84s-.46-2.09-1.39-2.67c-.27-.18-1.39-.63-3.35-1.34-1.64-.6-2.83-1.24-3.6-1.94-1.13-1.02-1.69-2.34-1.69-3.98,0-1.89,.6-3.39,1.8-4.5,1.15-1.02,2.57-1.53,4.28-1.53,4.11,0,6.2,1.98,6.27,5.94h-2.62c-.07-2.34-1.22-3.52-3.44-3.52-1.13,0-2.02,.29-2.67,.87-.64,.6-.95,1.42-.95,2.45s.35,1.86,1.04,2.43c.4,.35,1.26,.78,2.59,1.31,2.29,.91,3.75,1.6,4.39,2.07,1.34,1.04,2.02,2.47,2.02,4.31Z"/><path class="cls-10" d="M1210.83,164.64h-5.26v18.87h-2.56v-18.87h-5.26v-2.45h13.09v2.45Z"/><path class="cls-10" d="M1224.52,183.51h-12.51v-21.32h12.1v2.45h-9.54v6.65h9.16v2.45h-9.16v7.31h9.95v2.45Z"/><path class="cls-10" d="M1238.53,168.46c0,4.18-2.54,6.27-7.61,6.27h-2.48v8.78h-2.56v-21.32h4.93c5.14,0,7.72,2.09,7.72,6.27Zm-2.62,0c0-2.54-1.28-3.82-3.84-3.82h-3.63v7.61h3.63c2.56,0,3.84-1.26,3.84-3.79Z"/><path class="cls-10" d="M1252.62,177.62c0,2-.66,3.56-1.99,4.69-1.24,1.07-2.77,1.61-4.61,1.61-4.22,0-6.32-2.12-6.32-6.35h2.64c0,1.35,.25,2.33,.74,2.94,.58,.69,1.56,1.04,2.94,1.04,1.22,0,2.19-.37,2.92-1.12,.71-.75,1.06-1.76,1.06-3.05s-.44-2.35-1.31-3.03c-.75-.55-1.7-.82-2.86-.82-.22,0-.57,.04-1.06,.11v-2.51c.47,.05,.91,.08,1.31,.08,1.02,0,1.89-.35,2.62-1.06,.71-.69,1.06-1.56,1.06-2.62,0-2.33-1.22-3.49-3.65-3.49-1.33,0-2.25,.29-2.75,.87-.53,.56-.79,1.5-.79,2.81h-2.54c0-3.96,1.95-5.94,5.86-5.94,1.94,0,3.48,.46,4.61,1.39,1.2,.98,1.8,2.44,1.8,4.39,0,1.13-.28,2.13-.85,3-.53,.78-1.2,1.37-2.02,1.77,2.13,1.11,3.19,2.87,3.19,5.29Z"/></g><path class="cls-8" d="M1192.44,219.91c.19-.79,.95-1.29,1.76-1.28,1.93,.03,6.12,.49,9.74,3.66,3.55,3.12-5.63,9.66-10.86,12.98-1.31,.83-2.97-.28-2.73-1.81l2.07-13.13s-.04-.14,.03-.43Z"/><path class="cls-7" d="M1244.33,242.58s-7.1-7.11-4.91-8.16,5.31-3.39,6.11-.61-1.2,8.78-1.2,8.78Z"/><g><path class="cls-10" d="M1242.93,231.93c1.87-.03,2.87,.66,3.36,2.12,.58,1.72,.56,3.55,.87,5.32,.64,3.68,1.59,7.3,2,11.02,.16,1.46,.62,2.6,1.68,3.65,1.34,1.33,2.15,3.02,2.6,4.89,.45,1.85,.95,3.7,2.5,5.02,.21,.18,.35,.44,.13,.72-.18,.23-.44,.32-.73,.25-.42-.1-.7-.4-.95-.73-.94-1.24-1.62-2.64-1.9-4.14-.63-3.37-2.63-5.75-5.3-7.67-3.72-2.68-7.38-5.44-10.84-8.46-1-.87-1.96-1.79-2.86-2.76-1.28-1.37-1.35-2.92-.11-4.3,2.64-2.95,6.13-4.25,9.55-4.92Zm-6.88,8.5c2.34-.34,4.58-1.15,6.47-2.76,.75-.64,1.47-1.32,1.92-2.21,.6-1.21,.03-2.19-1.32-2.26-.33-.02-.68,.04-1,.12-2.29,.58-4.4,1.58-6.35,2.9-.51,.35-.94,.78-1.31,1.27-.48,.63-.72,1.35-.36,2.09,.36,.74,1.14,.76,1.95,.85Zm9.66-1.76c-.03-.23-.05-.48-.11-.7-.09-.34,.09-.87-.33-1-.46-.14-.66,.38-.92,.67-1.21,1.38-2.71,2.34-4.41,3.02-1.01,.4-2.05,.71-3.12,.9-.24,.04-.71,0-.52,.51,.28,.76,1.74,1.6,2.55,1.31,2.29-.84,4.52-1.83,6.34-3.54,.33-.31,.54-.69,.51-1.18Z"/><path class="cls-10" d="M1217.76,210.11c-.49,0-.81-.24-1.04-.6-.28-.44-.64-.44-1.06-.25-1.23,.56-2.22,1.43-3.16,2.37-.39,.38-.19,.69,.1,1.05,.67,.87,.56,1.79-.24,2.53-.97,.9-2.01,.64-2.26-.64-.16-.86-.5-.69-1.02-.4-1.51,.86-2.65,2.1-3.67,3.47-.14,.19-.27,.39-.43,.57-.21,.25-.43,.65-.81,.35-.42-.33-.2-.74,.05-1.08,1.32-1.83,2.81-3.51,4.86-4.55,1.11-.57,2.06-1.29,2.88-2.21,.99-1.1,2.12-1.98,3.54-2.49,.84-.3,1.53-.86,2.07-1.59,1.72-2.29,4.23-3.32,6.81-4.22,.26-.09,.56-.16,.71,.16,.15,.31-.08,.54-.3,.68-.37,.24-.77,.43-1.16,.62-1.49,.73-3.09,1.29-4.36,2.39-.6,.51-1.62,1.04-.39,2.01,.35,.28,.21,.76,0,1.13-.26,.44-.65,.68-1.12,.7Z"/><path class="cls-10" d="M1205.04,199.07c.1,2.38-.38,4.74-1.57,6.95-.21,.4-.29,.82-.29,1.27,.01,3.17-1.15,6.03-2.35,8.88-.07,.15-.16,.3-.26,.44-.2,.27-.42,.64-.81,.46-.49-.22-.24-.66-.1-.97,1.02-2.15,1.86-4.37,2.3-6.72,.06-.3,.08-.6,.1-.91,.04-.56-.14-.84-.79-.89-1.19-.11-1.85-.81-1.86-1.77-.01-.68,.28-1.19,.86-1.51,.63-.35,1.28-.28,1.81,.17,.66,.56,.88,.28,1.11-.38,.71-1.99,.75-4.05,.77-6.13,0-.59-.25-1.6,.56-1.6,.93,0,.43,.99,.49,1.56,.04,.34,0,.68,0,1.13Z"/><path class="cls-10" d="M1236.85,226.9c-.02,.37,.15,.77,.27,1.19,.13,.49,.26,.56,.66,.35,.57-.29,1.07-.17,1.45,.31,.34,.44,.35,.96,.12,1.45-.26,.57-.74,.77-1.35,.64-.94-.2-.84,.5-.95,1.05-.08,.41,.26,1.16-.46,1.12-.67-.04-.75-.82-.59-1.31,.5-1.51-.11-2.94-.11-4.39,0-2,0-4.04,.24-6.04,.18-1.53,1.09-2.84,1.72-4.22,.13-.29,.35-.55,.71-.41,.39,.15,.29,.5,.17,.78-.23,.53-.48,1.05-.73,1.57-.41,.86-.81,1.72-.95,2.68-.1,.73-.26,1.45,.98,1.25,.79-.13,1.28,.51,1.27,1.36-.01,.89-.56,1.44-1.47,1.48q-1.01,.05-1,1.14Z"/><path class="cls-10" d="M1242.79,229.06c.01,.11,.02,.25,.05,.38,.09,.37,.23,.83-.23,.97-.52,.15-.64-.37-.8-.73-.21-.49-.25-1.05,.03-1.48,1.54-2.35,2.09-5.22,3.97-7.39,.45-.51,.88-1.04,1.43-1.44,.24-.18,.54-.39,.82-.12,.34,.33,.09,.63-.15,.87-.88,.9-1.74,1.81-2.44,2.87-.31,.47-.6,.84,.34,.97,.82,.11,1.12,.87,.85,1.75-.3,.95-1.11,1.53-1.81,1.11-.89-.53-1.19-.12-1.49,.6-.22,.53-.53,1.03-.58,1.64Z"/><path class="cls-10" d="M1225.93,231.95c-.15,.02-.52,.06-.89,.11-.35,.04-.75,.09-.82-.35-.07-.44,.37-.53,.69-.6,1.46-.29,2.9-.2,4.04,.81,.82,.73,1.74,1.12,2.74,1.44,.51,.16,.98,.45,1.46,.71,.23,.13,.48,.34,.33,.65-.18,.36-.51,.29-.79,.15-.37-.17-.72-.38-1.07-.58-.53-.29-.87-.25-.98,.45-.12,.75-.52,1.31-1.29,1.56-.73,.24-1.35,.1-1.8-.53-.45-.62-.39-1.25,0-1.9,.25-.41,1.09-.61,.8-1.13-.35-.62-1.14-.79-1.89-.79-.1,0-.2,0-.53,0Z"/><path class="cls-10" d="M1219.93,226.66c.84-.03,1.66,1.38,1.18,2.15-.73,1.15-1.55,2.23-2.36,3.32-.28,.37-.71,.57-.97,.02-.4-.85-1.04-1.83-.64-2.69,.53-1.14,1.34-2.21,2.6-2.76,.06-.03,.13-.03,.2-.05Z"/><path class="cls-10" d="M1229.94,214.16c-.02-1.08,.37-1.5,1.12-1.62,.72-.11,1.29,.06,1.48,.85,.25,1.05,.52,2.1,.74,3.16,.17,.8-.39,1.36-1.53,1.63-.83,.19-.98-.37-1.12-.96-.26-1.12-.51-2.24-.7-3.07Z"/><path class="cls-10" d="M1230.1,225.07c-.22,.82-.6,1.51-1.35,1.86-.75,.34-1-.35-1.33-.79-.54-.74-1.09-1.48-1.57-2.26-.5-.79-.26-1.34,.69-2.01,.71-.5,1.19-.24,1.62,.37,.53,.75,1.08,1.48,1.61,2.23,.13,.19,.22,.41,.32,.61Z"/><path class="cls-10" d="M1227.25,240.36c-.14,1.15-1.2,1.76-2.2,1.2-.83-.46-1.65-.96-2.37-1.57-.84-.71-.25-1.52,.1-2.21,.34-.67,.96-.58,1.49-.23,.85,.55,1.68,1.15,2.49,1.75,.34,.25,.56,.6,.48,1.06Z"/><path class="cls-10" d="M1245.29,215.7c.05,1.05-.68,2.07-1.71,2.29-.71,.15-1.01-.28-1.07-.89-.1-1.04-.15-2.09-.21-3.13-.04-.65,.14-1.17,.89-1.22,.78-.05,1.54,.02,1.78,.94,.17,.65,.22,1.33,.33,2Z"/><path class="cls-10" d="M1251.52,230.26c-.16,.76-.83,1.22-1.55,1.46-.75,.25-.96-.46-1.15-.99-.28-.8-.51-1.61-.74-2.43-.16-.58-.06-1.11,.54-1.37,.61-.27,1.25-.36,1.78,.19,.26,.26,1.14,2.66,1.12,3.13Z"/><path class="cls-10" d="M1223.21,216.44c-1.21,.03-2.29-.52-2.33-1.19-.05-.91,1.35-2.88,2.06-2.9,.72-.02,1.93,1,1.94,1.65,.03,1.15-.85,2.42-1.68,2.44Z"/><path class="cls-10" d="M1191.49,210.45c.1-.48-.32-1.39,.81-1.49,1.58-.13,2.19,.28,2.34,1.52,.02,.13,.03,.27,.06,.4,.24,1.55-.07,2.01-1.47,2.15-1.15,.11-1.67-.43-1.74-1.81-.01-.2,0-.41,0-.77Z"/><path class="cls-10" d="M1209.84,198.02c-.03-.9,.44-1.48,1.46-1.62,.6-.08,1.19-.26,1.8-.34,.73-.09,1.07,.3,1.08,1.01,0,1.03-.61,1.8-1.62,2.06-.39,.1-.79,.21-1.19,.29-1.17,.25-1.57-.09-1.53-1.41Z"/><path class="cls-10" d="M1195.18,199.04c0-.8-.09-1.49,.58-1.8,.68-.32,1.4-.12,2.06,.16,.35,.15,.46,.47,.47,.83,.02,.61-.06,1.21-.15,1.82-.13,.94-.75,1.23-1.57,1.25-.83,.02-1.23-.45-1.3-1.24-.04-.4-.08-.81-.11-1.02Z"/><path class="cls-10" d="M1212.28,221.97c.06-1.85,1.91-2.82,3.46-1.91,.8,.47,.66,1.86-.28,2.48-.69,.45-1.5,.67-2.31,.71-.99,.05-.86-.73-.86-1.29Z"/><path class="cls-10" d="M1220.76,197.26c-1.12,.03-1.93-.46-1.94-1.17-.01-1.25,.71-2.74,1.31-2.73,.61,.01,2.37,1.35,2.39,1.82,.04,.81-1.02,2.06-1.76,2.08Z"/><path class="cls-10" d="M1207.16,223.75c-2.73-2.81-5.97-4.67-9.89-5.26-1.37-.21-2.23,.29-2.69,1.6-.28,.8-.46,1.64-.73,2.44-1.93,5.59-3.76,11.2-5.12,16.97-.37,1.58-.7,3.24-1.54,4.63-2.04,3.35-2.4,7.47-4.98,10.56-.24,.28-.3,.74,.1,1,.38,.24,.64-.11,.85-.35,.93-1.01,1.61-2.18,2.1-3.46,.63-1.65,1.21-3.32,1.89-4.95,.55-1.31,1.1-2.7,2.3-3.55,2.77-1.98,5.31-4.23,8.01-6.3,3.64-2.8,7.12-5.78,10.16-9.24,.4-.45,.73-.9,.69-1.53-.06-.99-.47-1.83-1.16-2.53Zm-10.64-3.72c.21-.47,.69-.38,1.08-.34,2.03,.24,3.74,1.21,5.39,2.3h0s0,0,0,0l.89,.67h0l.49,.37h0l.59,.45h0s.46,.35,.46,.35l.24,.18c.33,.25,.55,.63,.56,1.04,.01,.46-.21,.96-1.23,.93-.08,0-.16-.01-.24-.02-.04,0-.07,0-.11-.02-.01,0-.02,0-.03,0-.38-.07-.81-.21-1.26-.4,0,0-.02,0-.03-.01-1.15-.48-2.39-1.24-3.16-1.74l-.73-.49s-.01,0-.02-.01h-.02s0-.01,0-.01c-.91-.63-1.75-1.35-2.54-2.15-.29-.29-.53-.68-.35-1.1Zm-2.38,18.02c-.21,.1-.45,.14-.65,.2-.98-.13-1.83-.52-2.47-1.17-.58-.58-.21-1.33,.15-1.87,.43-.63,.82,.03,1.18,.23,.65,.36,1.27,.78,1.88,1.2,.93,.64,.91,.92-.1,1.41Zm6.13-4.98c-.3,.59-.81,1.14-1.62,.93-.32-.08-.62-.27-.9-.45-1.43-.84-2.84-1.7-4.27-2.55-.36-.21-.72-.41-.67-.89-.02-1.39,.52-1.76,1.65-1.09,1.71,1.02,3.4,2.09,5.09,3.15,.33,.21,1.01,.33,.73,.89Zm5.25-4.83c-.57,.85-1.32,1.09-2.28,.95-2.13-.12-4.52-1.59-4.52-1.59h0c-1.31-.75-2.51-1.64-3.44-2.87-.5-.66-.39-2.24,.17-2.85,.28-.31,.41-.03,.55,.12,2.51,2.79,5.7,4.43,9.24,5.48,.48,.14,.6,.28,.29,.76Z"/></g></g></g><polygon class="cls-6" points="831.73 225.48 820.29 232.08 808.86 238.68 808.86 225.48 808.86 212.28 820.29 218.88 831.73 225.48"/><polygon class="cls-6" points="1090.05 225.48 1078.62 232.08 1067.19 238.68 1067.19 225.48 1067.19 212.28 1078.62 218.88 1090.05 225.48"/><g><circle class="cls-1" cx="691.13" cy="220.14" r="71.29"/><g><path class="cls-10" d="M669.89,179.2c0,2.27-.68,3.91-2.04,4.91-1.18,.87-2.93,1.31-5.23,1.31-3.87,0-5.84-2.26-5.92-6.79h2.67c.04,1.58,.32,2.68,.85,3.3,.58,.69,1.64,1.04,3.16,1.04,1.13,0,2.02-.28,2.67-.85,.78-.64,1.17-1.58,1.17-2.84s-.46-2.09-1.39-2.67c-.27-.18-1.39-.63-3.35-1.34-1.64-.6-2.83-1.24-3.6-1.94-1.13-1.02-1.69-2.34-1.69-3.98,0-1.89,.6-3.39,1.8-4.5,1.15-1.02,2.57-1.53,4.28-1.53,4.11,0,6.2,1.98,6.27,5.94h-2.62c-.07-2.34-1.22-3.52-3.44-3.52-1.13,0-2.02,.29-2.67,.87-.64,.6-.95,1.42-.95,2.45s.35,1.86,1.04,2.43c.4,.35,1.26,.78,2.59,1.31,2.29,.91,3.75,1.6,4.39,2.07,1.34,1.04,2.02,2.47,2.02,4.31Z"/><path class="cls-10" d="M683.8,166.15h-5.26v18.87h-2.56v-18.87h-5.26v-2.45h13.09v2.45Z"/><path class="cls-10" d="M697.48,185.01h-12.51v-21.32h12.1v2.45h-9.54v6.65h9.16v2.45h-9.16v7.31h9.95v2.45Z"/><path class="cls-10" d="M711.49,169.96c0,4.18-2.54,6.27-7.61,6.27h-2.48v8.78h-2.56v-21.32h4.93c5.14,0,7.72,2.09,7.72,6.27Zm-2.62,0c0-2.54-1.28-3.82-3.84-3.82h-3.63v7.61h3.63c2.56,0,3.84-1.26,3.84-3.79Z"/><path class="cls-10" d="M722.43,185.01h-2.51v-17.75c-1.02,.91-2.38,1.72-4.09,2.43v-2.73c1.87-.84,3.44-1.93,4.69-3.27h1.91v21.32Z"/></g><g><path class="cls-2" d="M628.82,319.74c.8,.06,1.75,.09,2.84,.09h10.67c1.09,0,2.06-.03,2.93-.09v1.63c-.86-.06-1.84-.09-2.93-.09h-4.13v5.16h3.7c.92,0,1.72-.03,2.41-.09v1.63c-.69-.06-1.49-.09-2.41-.09h-3.7v6.63h4.82c1.15,0,2.35-.03,3.61-.09v1.63c-1.26-.06-2.44-.09-3.53-.09h-12.99c-1.09,0-2.01,.03-2.75,.09v-1.63c.75,.06,1.66,.09,2.75,.09h.52v-7.31c0-.97-.03-1.84-.09-2.58h1.89c-.06,.69-.09,1.55-.09,2.58v7.31h4.13v-13.25h-4.82c-1.09,0-2.04,.03-2.84,.09v-1.63Z"/><path class="cls-2" d="M649.47,319.56c.8,.06,1.46,.09,1.98,.09h3.36c.52,0,1.03-.03,1.55-.09v1.29c-.69-.06-1.29-.09-1.81-.09h-1.03c-.4,1.66-.83,3.24-1.29,4.73h3.87c-.06,.86-.09,1.75-.09,2.67v4.82c0,.92,.03,1.72,.09,2.41h-1.55v-1.46h-2.06v2.75h-1.55c.06-1.43,.09-2.55,.09-3.36v-5.16c-.23,.52-.52,1.12-.86,1.81-.46-.57-.92-1-1.38-1.29,1.09-1.83,1.82-3.25,2.19-4.26,.37-1,.7-2.22,.99-3.66h-2.5v-1.2Zm3.01,7.06v6.2h2.06v-6.2h-2.06Zm11.44-1.29c-.46-.63-.92-1.23-1.38-1.81,.23-.23,.52-.52,.86-.86,.57,.52,1.17,1.15,1.81,1.89-.29,.29-.57,.55-.86,.77h.95c.75,0,1.69-.03,2.84-.09v1.29c-.92-.06-1.86-.09-2.84-.09h-1.03v2.24c1.66,0,2.93-.03,3.79-.09v1.29c-.98-.06-2.24-.09-3.79-.09v2.15c1.55,0,2.78-.06,3.7-.17v1.38c-.86-.06-2.09-.09-3.7-.09v2.15h1.63c.97,0,1.98-.03,3.01-.09v1.29c-1.03-.06-2.04-.09-3.01-.09h-6.11v.86h-1.64c.11-1.38,.17-2.64,.17-3.79v-4.73c-.29,.4-.57,.83-.86,1.29-.4-.57-.8-1.06-1.2-1.46,.4-.34,.89-.87,1.46-1.59,.57-.72,1.12-1.58,1.63-2.58,.52-1,.89-2.02,1.12-3.05h-2.15v2.67h-1.55v-3.79h3.96c.11-.92,.14-1.66,.09-2.24,.69,.17,1.35,.32,1.98,.43-.17,.29-.37,.89-.6,1.81h6.28c-.06,.4-.09,.88-.09,1.42s.03,1.25,.09,2.11h-1.55v-2.41h-4.99c-.4,1.49-.86,2.84-1.38,4.04h3.36Zm-4.13,1.12v2.24h3.01v-2.24h-3.01Zm0,3.36v2.15h3.01v-2.15h-3.01Zm0,3.27v2.15h3.01v-2.15h-3.01Z"/><path class="cls-2" d="M677.26,330.58v1.55c-.52,.12-1.35,.42-2.5,.9-1.15,.49-2.06,.93-2.75,1.33-.29-.63-.63-1.2-1.03-1.72,.52-.06,1.43-.31,2.75-.77v-7.14c-.98,0-1.78,.03-2.41,.09v-1.46c.63,.06,1.43,.09,2.41,.09,0-2.64-.03-4.36-.09-5.16h1.72c-.06,.86-.09,2.58-.09,5.16,1.03,0,1.86-.03,2.5-.09v1.46c-.63-.06-1.46-.09-2.5-.09v6.62c.63-.23,1.29-.49,1.98-.77Zm3.7,2.58c.52,.52,1.06,.92,1.63,1.2-.86,.46-1.69,.99-2.5,1.59-.8,.6-1.63,1.13-2.5,1.59-.23-.4-.63-.83-1.2-1.29,.74-.34,1.48-.75,2.19-1.2,.72-.46,1.51-1.09,2.37-1.89Zm-3.1-13.85c.86,.06,1.92,.09,3.18,.09h1.89c.06-.63,.09-1.29,.09-1.98l1.72,.17c-.12,.52-.23,1.12-.34,1.81h2.32c1.26,0,2.41-.03,3.44-.09v1.38c-1.03-.06-2.18-.09-3.44-.09h-2.41l-.17,1.63h4.47c-.06,.69-.09,1.52-.09,2.5v7.14c.86,0,1.63-.03,2.32-.09v1.38c-.86-.06-1.81-.09-2.84-.09h-7.92c-.92,0-1.72,.03-2.41,.09v-1.38c.69,.06,1.29,.09,1.81,.09v-7.06c0-1.03-.03-1.89-.09-2.58h3.27l.17-1.63h-1.81c-1.26,0-2.32,.03-3.18,.09v-1.38Zm3.1,4.04v1.2h6.11v-1.2h-6.11Zm0,2.32v1.2h6.11v-1.2h-6.11Zm0,2.32v1.29h6.11v-1.29h-6.11Zm0,2.41v1.46h6.11v-1.46h-6.11Zm4.13,4.3c.46-.34,.86-.77,1.2-1.29,1.15,.57,2.58,1.41,4.3,2.5-.57,.4-.98,.86-1.2,1.38-.69-.57-2.12-1.43-4.3-2.58Z"/><path class="cls-2" d="M695.16,333.59c-.34-.46-.75-.92-1.2-1.38,.86-.23,1.73-.62,2.62-1.16,.89-.54,1.68-1.3,2.37-2.28h-2.06c.06-1.03,.09-1.89,.09-2.58v-1.63c0-.52-.03-1.23-.09-2.15,.46,0,1.1-.06,1.94-.17,.83-.11,1.68-.34,2.54-.69,.17,.46,.43,1,.77,1.63-.69,0-1.33,.03-1.94,.09-.6,.06-1.16,.12-1.68,.17v1.55h.86c.86,0,1.69-.03,2.5-.09v1.38c-.8-.06-1.52-.09-2.15-.09h-1.2v1.38h9.03v-1.38h-1.89c-.46,0-1.15,.03-2.06,.09v-1.38c.92,.06,1.6,.09,2.06,.09h1.89v-1.72h-2.24c-.4,0-.95,.03-1.63,.09v-1.38c.69,.06,1.23,.09,1.63,.09h3.87c-.06,.92-.09,1.75-.09,2.5v1.63c0,.69,.03,1.55,.09,2.58h-8.35c-.4,.52-.8,1-1.2,1.46h11.44c-.06,.69-.12,1.46-.17,2.32l-.17,3.44c-.12,.57-.45,.96-.99,1.16-.55,.2-1.36,.39-2.45,.56-.12-.63-.32-1.23-.6-1.81,.57,0,1.12-.02,1.63-.04,.52-.03,.8-.33,.86-.9l.26-3.53h-10.93c-1.03,.75-2.15,1.46-3.36,2.15Zm7.06-14.11c-.12-.63-.26-1.26-.43-1.89,.46-.11,1.09-.23,1.89-.34,.29,1.15,.49,1.89,.6,2.24h7.23c-.06,.52-.09,1.05-.09,1.59s.03,1.11,.09,1.68h-1.55v-2.07h-13.94v2.15h-1.55c.06-.57,.09-1.15,.09-1.72s-.03-1.12-.09-1.63h7.74Zm-5.25,13.85c.46,.12,.95,.26,1.46,.43-.46,1.09-.95,2.15-1.46,3.18-.46-.29-.89-.49-1.29-.6,.46-.8,.89-1.81,1.29-3.01Zm4.73,2.93c-.46,.06-.92,.17-1.38,.34-.17-.8-.37-1.72-.6-2.75,.4-.11,.83-.23,1.29-.34,.34,1.26,.57,2.18,.69,2.75Zm3.01-.6c-.4,.11-.83,.29-1.29,.52-.17-.63-.46-1.52-.86-2.67,.34-.17,.77-.34,1.29-.52,.29,.86,.57,1.75,.86,2.67Zm3.18-.69c-.46,.12-.89,.29-1.29,.52-.34-.8-.75-1.63-1.2-2.5,.4-.17,.83-.37,1.29-.6,.23,.52,.63,1.38,1.2,2.58Z"/><path class="cls-2" d="M715.46,318.88c1.09,.06,2.21,.09,3.36,.09h12.3c1.03,0,2.12-.03,3.27-.09v1.81c-1.2-.06-2.27-.09-3.18-.09h-5.94v13.34c0,.8,.03,1.78,.09,2.93h-1.98c.06-1.03,.09-2.01,.09-2.93v-13.34h-4.65c-1.15,0-2.27,.03-3.36,.09v-1.81Zm12.39,5.08c1.72,1.38,3.56,3.18,5.51,5.42-.69,.46-1.23,.95-1.63,1.46-.98-1.2-2.75-3.04-5.33-5.51,.46-.4,.95-.86,1.46-1.38Z"/><path class="cls-2" d="M740.76,322.92c-1.26,0-2.38,.03-3.36,.09v-1.55c1.09,.06,2.18,.09,3.27,.09h12.91c1.32,0,2.41-.03,3.27-.09v1.55c-.75-.06-1.84-.09-3.27-.09h-7.57c0,1.15-.06,2.29-.17,3.44h8c-.17,.69-.32,1.72-.43,3.1l-.43,5.08c-.17,1.2-.66,1.92-1.46,2.15-.8,.23-1.84,.43-3.1,.6-.17-.75-.46-1.46-.86-2.15,1.03,0,1.86-.03,2.5-.09,.63-.06,1.03-.52,1.2-1.38l.52-5.94h-6.11c-.23,1.78-.69,3.28-1.38,4.52-.69,1.23-1.39,2.19-2.11,2.88-.72,.69-1.56,1.38-2.54,2.06-.34-.57-.89-1.06-1.63-1.46,.97-.52,1.83-1.12,2.58-1.81,.75-.69,1.39-1.55,1.94-2.58,.54-1.03,.95-2.24,1.2-3.61s.39-2.98,.39-4.82h-3.36Zm7.83-2.24c-.69,.17-1.35,.37-1.98,.6-.29-1.15-.6-2.15-.95-3.01,.69-.17,1.32-.37,1.89-.6,.34,.86,.69,1.86,1.03,3.01Z"/><path class="cls-2" d="M627.44,347.46c.86,.06,2.14,.09,3.83,.09s2.82-.03,3.4-.09v1.38c-.57-.06-1.78-.09-3.61-.09s-3.04,.03-3.61,.09v-1.38Zm.6,8.95h5.94c-.06,.86-.09,2.06-.09,3.61s.03,2.67,.09,3.36h-1.55v-1.38h-2.84v1.46h-1.55c.06-1.09,.09-2.37,.09-3.83s-.03-2.54-.09-3.23Zm.09-5.94c.69,.06,1.68,.09,2.97,.09s2.22-.03,2.8-.09v1.38c-.57-.06-1.49-.09-2.75-.09s-2.27,.03-3.01,.09v-1.38Zm0,2.93c.75,.06,1.79,.09,3.14,.09s2.22-.03,2.62-.09v1.38c-.46-.06-1.35-.09-2.67-.09s-2.35,.03-3.1,.09v-1.38Zm1.46,4.22v3.18h2.84v-3.18h-2.84Zm.34-13.08c.52-.17,.97-.34,1.38-.52,.29,.63,.6,1.41,.95,2.32-.69,.23-1.2,.43-1.55,.6-.23-.92-.49-1.72-.77-2.41Zm5.59,3.18c.86,.12,1.89,.17,3.1,.17h4.73c.97,0,1.92-.03,2.84-.09v1.38c-.86-.06-2.41-.09-4.65-.09v4.82c1.89,0,3.27-.03,4.13-.09v1.38c-.86-.06-2.24-.09-4.13-.09v6.2c2.75,0,4.47-.03,5.16-.09v1.46c-.86-.12-1.89-.17-3.1-.17h-5.94c-1.32,0-2.24,.06-2.75,.17v-1.46c.63,.06,2.35,.09,5.16,.09v-6.2c-1.89,0-3.27,.03-4.13,.09v-1.38c.92,.06,2.29,.09,4.13,.09v-4.82c-2.18,0-3.7,.03-4.56,.09v-1.46Zm3.79-3.1c.46-.17,.92-.34,1.38-.52,.34,.75,.69,1.61,1.03,2.58-.46,.12-.98,.32-1.55,.6-.17-.86-.46-1.75-.86-2.67Z"/><path class="cls-2" d="M666.16,353.14c1.03,0,1.81-.03,2.32-.09v1.55c-.52-.06-1.29-.09-2.32-.09v7.49c0,.63-.2,1.06-.6,1.29-.4,.23-1.15,.43-2.24,.6-.17-.63-.43-1.26-.77-1.89,.75,0,1.25-.02,1.51-.04,.26-.03,.42-.36,.47-.99v-14.28h-11.36v16.69h-1.55c.11-.75,.17-1.58,.17-2.5v-6.37c-.86,0-1.63,.03-2.32,.09v-1.55c.74,.06,1.52,.09,2.32,.09v-4.73c0-1.38-.03-2.41-.09-3.1h14.54c-.06,.57-.09,1.61-.09,3.1v4.73Zm-10.41-.09v-6.37h1.63v6.37h2.93v-6.37h1.63v6.37h2.58v1.38h-2.58v8.09h-1.63v-8.09h-2.93v8.17h-1.63v-8.17h-2.58v-1.38h2.58Z"/><path class="cls-2" d="M680.7,343.59l1.81,.86c-.17,.17-.32,.37-.43,.6,.4,.52,.95,.99,1.63,1.42,.69,.43,1.42,.79,2.19,1.08,.77,.29,1.6,.52,2.5,.69,.89,.17,1.73,.29,2.54,.34-.4,.52-.66,1.12-.77,1.81-1.09-.23-2.06-.47-2.93-.73-.86-.26-1.63-.56-2.32-.9-.69-.34-1.36-.76-2.02-1.25-.66-.49-1.25-1.1-1.76-1.85-.46,.4-1.05,.83-1.76,1.29-.72,.46-1.51,.9-2.37,1.33-.86,.43-1.75,.82-2.67,1.16-.92,.34-1.81,.66-2.67,.95-.23-.69-.46-1.29-.69-1.81,1.03-.17,2.07-.42,3.1-.73,1.03-.31,2.01-.73,2.93-1.25,.92-.52,1.71-1.03,2.37-1.55,.66-.52,1.1-1,1.33-1.46Zm-7.57,6.88h15.14c-.06,.75-.09,1.38-.09,1.89v1.72c0,.4,.03,1.03,.09,1.89h-15.14c.06-.8,.09-1.49,.09-2.07v-1.55c0-.52-.03-1.15-.09-1.89Zm1.55,1.2v3.1h5.16v-3.1h-5.16Zm0,12.48c.06-.63,.09-1.58,.09-2.84v-2.15c0-.57-.03-1.26-.09-2.07h11.96c-.06,.63-.09,1.23-.09,1.81v2.5c0,.97,.03,1.83,.09,2.58h-1.55v-.69h-8.86v.86h-1.55Zm1.46-11.7c.52-.23,.97-.43,1.38-.6,.23,.46,.6,1.15,1.12,2.06-.63,.23-1.09,.43-1.38,.6-.29-.52-.66-1.2-1.12-2.06Zm.09,5.85v1.29h8.86v-1.29h-8.86Zm0,2.5v1.29h8.86v-1.29h-8.86Zm1.46-12.73c.63,.12,1.18,.17,1.63,.17h2.5c.46,0,1.03-.06,1.72-.17v1.46c-.69-.06-1.26-.09-1.72-.09h-2.32c-.4,0-1,.03-1.81,.09v-1.46Zm3.61,3.61v3.1h5.42v-3.1h-5.42Zm2.41,.52c.4,.06,.89,.23,1.46,.52-.29,.34-.52,.65-.69,.9-.17,.26-.4,.59-.69,.99-.4-.23-.89-.4-1.46-.52,.34-.34,.62-.67,.82-.99,.2-.31,.39-.62,.56-.9Z"/><path class="cls-2" d="M699.37,360.45c.8,.8,1.38,1.35,1.72,1.63-.8,.23-1.76,.54-2.88,.95-1.12,.4-2.11,.75-2.97,1.03-.17-.4-.55-.95-1.12-1.63,2.29-.52,4.04-1.18,5.25-1.98Zm10.5-9.9c-.06,.92-.09,1.95-.09,3.1v3.61c0,.92,.03,1.84,.09,2.75h-13.68c.06-.92,.09-1.81,.09-2.67v-3.53c0-1.03-.03-2.12-.09-3.27h13.68Zm-12.3-5.76h10.93c-.06,.69-.09,1.51-.09,2.45s.03,1.74,.09,2.37h-10.93c.06-.63,.09-1.42,.09-2.37s-.03-1.76-.09-2.45Zm10.67,8.52v-1.38h-10.32v1.38h10.32Zm0,2.58v-1.29h-10.32v1.29h10.32Zm0,2.75v-1.46h-10.32v1.46h10.32Zm-9.03-12.48v2.06h7.66v-2.06h-7.66Zm6.8,15.23c.57-.46,1.03-.86,1.38-1.2,.75,.34,1.51,.7,2.28,1.08,.77,.37,1.62,.79,2.54,1.25-.34,.34-.77,.8-1.29,1.38-2.29-1.32-3.93-2.15-4.9-2.5Z"/><path class="cls-2" d="M715.98,350.13c.8-.29,1.66-.59,2.58-.9,.92-.31,1.89-.73,2.93-1.25,.11,.46,.26,.92,.43,1.38-2.24,.92-3.87,1.63-4.9,2.15-.29-.52-.63-.97-1.03-1.38Zm5.59-4.39c-.34,.4-.66,.86-.95,1.38-1.09-.63-2.29-1.15-3.61-1.55,.29-.4,.54-.8,.77-1.21,1.38,.46,2.64,.92,3.79,1.38Zm1.12,14.63c.23,.46,.54,.98,.95,1.55-.17,0-.88,.27-2.11,.82-1.23,.54-2.37,1.02-3.4,1.42-.29-.52-.57-.98-.86-1.38,.52-.12,1.32-.39,2.41-.82,1.09-.43,2.09-.96,3.01-1.59Zm8.78-8.43c-.06,.75-.09,2.11-.09,4.09s.03,3.34,.09,4.09h-12.65c.06-.69,.09-2.04,.09-4.04s-.03-3.38-.09-4.13h12.65Zm-1.64,2.58v-1.46h-9.38v1.46h9.38Zm0,2.15v-1.12h-9.38v1.12h9.38Zm0,2.32v-1.29h-9.38v1.29h9.38Zm1.72-10.84c.11-.4,.29-.8,.52-1.2h-3.44c-.12,.4-.26,.83-.43,1.29,1.15,.34,2.21,.72,3.18,1.12,.97,.4,2.01,.86,3.1,1.38-.57,.4-1.06,.83-1.46,1.29-.92-.69-1.79-1.25-2.62-1.68-.83-.43-1.71-.82-2.62-1.16-.4,.46-.96,.95-1.68,1.46-.72,.52-1.42,.95-2.11,1.29-.46-.4-1-.77-1.63-1.12,1.55-.52,2.67-1.06,3.36-1.63,.69-.57,1.15-1.32,1.38-2.24h-2.15l-1.29,1.29c-.52-.29-1-.54-1.46-.77,.52-.34,1.08-.79,1.68-1.33,.6-.54,1.16-1.3,1.68-2.28,.34,.23,1,.52,1.98,.86-.57,.34-1.06,.72-1.46,1.12h7.92c-.46,1.26-.75,2.15-.86,2.67-.63-.17-1.15-.29-1.55-.34Zm1.63,14.63c-.57,.52-.92,1-1.03,1.46-1.61-.92-3.21-1.72-4.82-2.41,.4-.52,.72-.95,.95-1.29,1.09,.46,2.72,1.2,4.9,2.24Z"/><path class="cls-2" d="M737.66,351.25c.97,.06,2.12,.09,3.44,.09v-4.65c0-.92-.03-1.72-.09-2.41h1.72c-.06,.57-.09,1.41-.09,2.5v4.56c.92,0,1.89-.03,2.93-.09v1.46c-1.03-.06-2.01-.09-2.93-.09v7.92c0,.92,.03,1.89,.09,2.93h-1.72c.06-1.03,.09-2.01,.09-2.93v-5.25c-.52,1.49-1.41,2.98-2.67,4.47-.4-.4-.86-.77-1.38-1.12,.75-.74,1.43-1.65,2.07-2.71,.63-1.06,1.15-2.16,1.55-3.31-1.03,0-2.04,.03-3.01,.09v-1.46Zm0-4.39c.46-.17,.95-.34,1.46-.52,.11,.29,.52,1.35,1.2,3.18-.52,.17-1.03,.4-1.55,.69-.12-.52-.49-1.63-1.12-3.36Zm5.16,7.83c.52-.17,1-.37,1.46-.6,.57,1.09,1.12,2.21,1.64,3.36-.57,.23-1.12,.49-1.64,.77-.4-1.15-.89-2.32-1.46-3.53Zm1.63-8.6c.57,.23,1.15,.4,1.72,.52-.23,.4-.72,1.58-1.46,3.53-.4-.17-.86-.34-1.38-.52,.46-1.03,.83-2.21,1.12-3.53Zm2.24,11.62c1.66-.23,3.76-.57,6.28-1.03v-9.89c0-.98-.03-1.81-.09-2.5h1.81c-.06,.69-.09,1.52-.09,2.5v9.64c.69-.17,1.49-.37,2.41-.6l.09,1.55c-.92,.17-1.75,.34-2.5,.52v2.67c0,.86,.03,1.92,.09,3.18h-1.81c.06-1.66,.09-3.53,.09-5.59-2.81,.52-4.82,.89-6.02,1.12l-.26-1.55Zm.86-5.77c.52-.34,.97-.66,1.38-.95,.92,1.2,1.78,2.41,2.58,3.61-.52,.34-1.03,.72-1.55,1.12-.75-1.38-1.55-2.64-2.41-3.79Zm.26-5.33c.46-.29,.89-.6,1.29-.95,.92,1.15,1.81,2.38,2.67,3.7-.57,.29-1.12,.63-1.63,1.03-.69-1.26-1.46-2.52-2.32-3.79Z"/></g><rect class="cls-9" x="681.32" y="224.04" width="22.58" height="38.43" rx="5.91" ry="5.91" transform="translate(-38.24 312.14) rotate(-24.74)"/><g><path class="cls-4" d="M686.1,253.97c-.22,.07-.4,.12-.57,.18-.46,.17-.92,.26-1.41,.27-.28,0-.44-.07-.54-.29-.46-.98-.95-1.94-1.36-2.94-.57-1.38-1.06-2.78-1.61-4.16-.71-1.76-1.73-3.37-2.8-4.95-.5-.74-1.03-1.45-1.54-2.18-.92-1.32-2.17-2.34-3.6-3.18-1.06-.63-2.17-1.16-3.34-1.6-2.6-.97-4.47-2.65-5.83-4.84-.73-1.17-1.31-2.41-1.71-3.71-.36-1.19-.55-2.42-.63-3.67-.1-1.43,.05-2.83,.46-4.22,.29-.99,.71-1.92,1.36-2.77,.79-1.05,1.88-1.77,3.12-2.3,1.5-.65,3.03-1.24,4.53-1.91,1.87-.84,3.71-1.75,5.58-2.61,1.97-.92,3.95-1.84,6.02-2.56,1.45-.5,2.92-.96,4.36-1.48,.89-.32,1.74-.72,2.6-1.11,.73-.33,1.45-.69,2.17-1.04,.12-.06,.27-.11,.36-.19,.39-.38,.89-.46,1.41-.48,.99-.04,1.9,.24,2.76,.61,1.55,.67,2.75,1.68,3.39,3.16,.51,1.17,.7,2.39,.38,3.65-.08,.33-.01,.59,.17,.87,2.17,3.38,4.25,6.8,5.83,10.47,1.12,2.61,2.34,5.18,3.48,7.78,.64,1.47,1.22,2.96,1.82,4.45,.8,1.99,1.77,3.91,2.88,5.76,1.5,2.5,2.67,5.13,3.71,7.82,.43,1.11,.94,2.19,1.42,3.28,.24,.53,.48,1.06,.73,1.59,.58,1.18,1.18,2.36,1.77,3.54,.02,.04,.03,.1,.07,.11,.55,.21,.43,.8,.76,1.14,.16,.16,.04,.31-.26,.44-1.03,.46-2.06,.91-3.09,1.38-5.66,2.53-11.31,5.06-16.97,7.59-1.86,.83-3.72,1.67-5.58,2.5-.18,.08-.34,.2-.5,.31-.05,.03-.09,.08-.15,.1-.57,.19-1.14,.41-1.73,.55-.56,.14-.66,.06-.94-.37-.88-1.35-1.64-2.75-2.33-4.19-1.13-2.36-2.09-4.79-3.07-7.21-.43-1.07-.9-2.12-1.36-3.17-.06-.13-.13-.25-.23-.42Zm-13.3-31.13c.06,.15,.11,.28,.17,.4,3.22,6.57,6.43,13.14,9.65,19.71,3.27,6.68,6.55,13.37,9.83,20.05,.67,1.37,1.34,2.74,2.01,4.1,.16,.32,.21,.34,.52,.21,1.39-.59,2.79-1.18,4.17-1.8,2.09-.93,4.14-1.93,6.24-2.83,3.37-1.45,6.77-2.82,10.13-4.28,1.76-.76,3.46-1.63,5.18-2.46,.44-.21,.44-.24,.24-.63-.37-.72-.76-1.44-1.14-2.16-.09-.18-.21-.34-.29-.52-.28-.64-.54-1.28-.82-1.92-.59-1.37-1.24-2.72-1.78-4.1-.98-2.47-2.05-4.9-3.42-7.2-1.1-1.84-2.1-3.73-2.9-5.71-.62-1.53-1.21-3.06-1.87-4.57-1-2.3-2.1-4.58-3.08-6.89-1.63-3.86-3.71-7.5-5.99-11.05-.07-.11-.16-.22-.3-.4-.11,.28-.2,.46-.25,.65-.07,.25-.2,.44-.45,.57-.58,.31-1.15,.65-1.73,.95-1.29,.66-2.58,1.31-3.89,1.94-.69,.34-1.4,.65-2.11,.96-.91,.39-1.83,.76-2.75,1.11-1.39,.53-2.81,1-4.13,1.67-2.13,1.08-4.25,2.16-6.39,3.24-1.45,.73-2.97,1.15-4.63,.93-.05,0-.11,.02-.23,.03Zm5.38-9.77c-.07-.09-.08-.12-.1-.14-.02-.02-.05-.04-.07-.05-1.35-.74-2.81-1.09-4.43-.92-1.72,.17-3.38,.54-4.97,1.18-1.09,.44-2.22,.8-3.24,1.38-.94,.54-1.7,1.22-2.26,2.1-.65,1.02-1.01,2.12-1.24,3.26-.32,1.56-.21,3.1,.02,4.65,.26,1.75,.88,3.39,1.75,4.94,1.33,2.38,3.23,4.22,6,5.24,1.16,.43,2.26,.95,3.29,1.59,.55,.34,1.05,.73,1.61,1.05,.49,.28,.86,.63,1.22,1.05,1.12,1.32,2.06,2.74,3.02,4.15,1.33,1.94,2.32,4.03,3.11,6.21,.43,1.17,.91,2.32,1.39,3.47,.21,.5,.47,.97,.71,1.46,.07,.14,.13,.3,.36,.26,.53-.08,1.01-.26,1.52-.49-.08-.19-.14-.35-.21-.5-.85-1.74-1.7-3.48-2.55-5.22-.21-.43-.39-.89-.67-1.29-.21-.3-.37-.61-.52-.93-.29-.63-.59-1.26-.91-1.88-.24-.47-.54-.91-.81-1.36-.05-.08-.12-.18-.11-.27,.04-.32-.13-.57-.26-.84-1.38-2.78-2.76-5.56-4.15-8.33-.72-1.42-1.47-2.83-2.21-4.25-.3-.57-.75-1-1.33-1.35-1.12-.67-2.14-1.45-3-2.39-1.01-1.12-1.79-2.33-1.88-3.85-.05-.73,0-1.44,.4-2.11,.16-.27,.43-.5,.44-.84,0-.09,.14-.19,.23-.26,.13-.1,.29-.18,.43-.26,2.12-1.26,4.4-2.23,6.65-3.24,.69-.31,1.4-.58,2.1-.88,.22-.09,.43-.22,.67-.35Zm2.05,6.87l.06,.06c.1-.03,.2-.06,.29-.11,.3-.15,.6-.31,.9-.47,1.6-.86,3.21-1.7,4.94-2.32,.95-.34,1.9-.67,2.83-1.05,2.37-.98,4.69-2.09,6.95-3.27,.6-.31,1.2-.63,1.8-.94,.32-.17,.57-.4,.67-.74,.15-.51,.34-1.01,.45-1.52,.33-1.51,.08-2.95-.81-4.22-1.05-1.49-2.62-2.31-4.52-2.64-.51-.09-1.01-.08-1.47,.24-.2,.14-.45,.21-.67,.31-.59,.28-1.19,.53-1.76,.83-1.29,.7-2.66,1.24-4.06,1.7-1.47,.49-2.95,.96-4.4,1.51-3.06,1.16-5.96,2.64-8.89,4.05-.07,.03-.12,.1-.19,.16,.07,.03,.1,.05,.13,.04,.23-.02,.46-.05,.7-.08,1.21-.14,2.39-.1,3.53,.28,1.74,.57,3.15,1.55,4.35,2.79,.79,.81,.95,1.79,.7,2.85-.18,.75-.61,1.4-1.11,2.02-.14,.17-.28,.33-.42,.5Zm-6.23,.17c-.06-.36-.12-.65-.14-.94-.04-.57-.38-.93-.89-1.19-.09-.05-.21-.08-.28-.15-.06-.06-.11-.18-.08-.25,.03-.07,.17-.14,.26-.13,.13,0,.27,.05,.39,.11,.6,.3,1.01,.71,1.09,1.36,.04,.3,.09,.6,.15,.96,.17-.07,.33-.12,.47-.19,1.5-.69,3.01-1.37,4.5-2.08,.55-.26,1.06-.61,1.59-.91,.22-.12,.27-.29,.24-.51-.05-.4-.2-.76-.47-1.08-.52-.63-1.17-1.14-1.84-1.62-.15-.11-.29-.12-.47-.04-.63,.29-1.27,.56-1.9,.84-1.13,.5-2.26,.99-3.38,1.52-1.09,.51-2.16,1.06-3.23,1.6-.1,.05-.19,.13-.33,.23,.14,.04,.2,.07,.28,.07,.8,.04,1.5,.3,2.15,.7,.68,.42,1.28,.92,1.43,1.72,0,.04,.05,.07,.1,.13,.13-.05,.27-.1,.37-.14Zm-3.07,1.95c.08,.15,.16,.27,.22,.39,.33,.69,.65,1.39,1,2.08,.88,1.71,1.76,3.42,2.66,5.12,.51,.97,1.09,1.91,1.59,2.89,.93,1.81,1.81,3.65,2.72,5.47,1.28,2.56,2.59,5.11,3.83,7.69,1.32,2.74,2.57,5.52,3.87,8.26,.81,1.71,1.67,3.4,2.51,5.09,1.35,2.73,2.71,5.46,4.07,8.18,.06,.13,.13,.26,.19,.38,.07,.13,.17,.21,.33,.13,.16-.08,.15-.2,.09-.33-.03-.05-.05-.1-.08-.15-.6-1.23-1.2-2.46-1.8-3.68-3.26-6.66-6.52-13.32-9.79-19.98-3.37-6.89-6.75-13.78-10.12-20.67-.17-.35-.4-.66-.71-.91-.25-.21-.25-.21-.59,.04Zm1.01-3.14c-.43-.31-.86-.49-1.32-.61-1.51-.4-2.48,.23-2.78,1.58-.02,.07-.03,.14-.03,.21-.06,.82,.02,1.62,.36,2.37,.76,1.67,2.09,2.9,3.66,3.95,.04,.02,.1,.02,.2,.03-.07-.12-.1-.2-.14-.27-.44-.64-.85-1.3-1.33-1.91-.37-.47-.59-1-.83-1.53-.13-.28-.09-.39,.18-.59,.24-.19,.49-.36,.75-.53,.19-.12,.34-.23,.28-.49-.02-.08,.1-.21,.18-.31,.05-.06,.14-.09,.22-.14-.25-.22-.36-.27-.62-.23-.11,.02-.21,.06-.32,.07-.18,0-.32-.16-.22-.28,.19-.23,.42-.44,.64-.64,.05-.04,.15-.05,.22-.05,.39-.02,.68,.15,.94,.38,.1,.09,.11,.21,.04,.35-.06,.11-.1,.25-.07,.35,.07,.28,.05,.52-.27,.71,.12,.07,.19,.12,.26,.16,.09,.04,.19,.08,.28,.11,.75-.55,1.11-1.73,.38-2.07-.28,.32-.4,.32-.66,0-.18-.21-.16-.41,.03-.64Zm.62,3.22c.29,.07,.53,.16,.78,.19,.97,.11,1.92-.07,2.84-.37,1.75-.58,3.13-1.62,4.19-3.01,.29-.39,.51-.82,.74-1.24,.07-.12,.08-.26,.14-.47-.19,.09-.29,.12-.37,.17-.3,.16-.58,.35-.88,.49-2.07,.95-4.15,1.89-6.23,2.84-.15,.07-.32,.15-.41,.27-.26,.34-.49,.69-.79,1.13Zm21.24,46.69c.13-.04,.19-.06,.25-.08,.62-.24,1.26-.45,1.86-.72,8.25-3.69,16.5-7.38,24.75-11.08,.27-.12,.54-.23,.8-.37,.07-.04,.1-.15,.15-.23-.1-.05-.2-.13-.3-.14-.09,0-.2,.07-.29,.12-.45,.23-.9,.47-1.36,.69-3.65,1.76-7.39,3.36-11.16,4.9-2.16,.88-4.31,1.81-6.44,2.75-1.4,.62-2.76,1.32-4.15,1.94-1.28,.57-2.59,1.09-3.88,1.64-.1,.04-.22,.07-.29,.13-.08,.07-.18,.2-.16,.26,.04,.09,.18,.14,.25,.19Zm-1.05-1.48s.07-.02,.11-.03c-.81-1.62-1.62-3.25-2.43-4.87-.03,.01-.06,.03-.09,.04,.69,1.67,1.46,3.31,2.41,4.86Zm-22.21-44.99c-.31,.16-.32,.17-.21,.4,.09,.19,.16,.39,.26,.58,.24,.45,.55,.85,.87,1.24,.03-.01,.05-.03,.08-.04-.33-.72-.67-1.45-1-2.17Z"/><path class="cls-4" d="M698.06,259.47c-.09-.04-.23-.06-.28-.14-.1-.13,.01-.24,.14-.31,.36-.2,.72-.42,1.1-.59,2.1-.97,4.2-1.95,6.32-2.88,1.71-.75,3.43-1.49,5.18-2.16,.88-.34,1.82-.52,2.73-.77,.37-.1,.75-.19,1.13-.29,.08-.02,.16-.07,.22-.06,.11,.02,.27,.05,.29,.12,.03,.07-.04,.23-.12,.28-.18,.1-.39,.17-.6,.23-.35,.09-.7,.17-1.05,.24-1.76,.37-3.42,1.02-5.04,1.75-2.85,1.28-5.69,2.55-8.54,3.83-.37,.16-.71,.36-1.07,.55-.12,.06-.25,.12-.42,.2Z"/><path class="cls-4" d="M684.48,231.52c-.07-.04-.2-.08-.24-.16-.03-.06,.02-.2,.09-.25,.13-.1,.29-.17,.45-.23,2.88-1.14,5.67-2.47,8.47-3.76,1.78-.82,3.62-1.53,5.43-2.29,.44-.19,.88-.37,1.32-.56,.11-.05,.23-.1,.34-.14,.16-.06,.32-.05,.39,.11,.07,.15-.03,.25-.16,.31-.15,.08-.31,.15-.46,.21-1.42,.58-2.85,1.13-4.25,1.75-2.11,.93-4.18,1.92-6.29,2.85-1.6,.71-3.21,1.37-4.82,2.06-.07,.03-.14,.05-.28,.1Z"/><path class="cls-4" d="M703.77,230.14c-.15,.14-.23,.25-.34,.3-.24,.11-.5,.17-.74,.27-1.54,.68-3.08,1.36-4.61,2.05-3.03,1.36-6.11,2.62-9.23,3.77-.3,.11-.62,.2-.81,.49-.04,.06-.21,.12-.27,.1-.09-.04-.18-.16-.19-.25-.03-.2,.13-.35,.31-.44,.29-.14,.59-.28,.89-.39,3.87-1.43,7.65-3.04,11.38-4.76,.88-.41,1.78-.78,2.68-1.15,.17-.07,.36-.12,.54-.13,.1,0,.21,.07,.39,.15Z"/><path class="cls-4" d="M691.55,242.99c-.09-.05-.23-.1-.27-.19-.03-.06,.06-.22,.15-.27,.18-.11,.39-.18,.59-.26,3.35-1.35,6.6-2.89,9.84-4.43,1.18-.56,2.39-1.09,3.59-1.62,.17-.08,.34-.14,.52-.2,.14-.05,.29-.05,.36,.09,.08,.16-.03,.27-.18,.35-.04,.02-.09,.04-.13,.05-2.79,1.28-5.58,2.58-8.38,3.84-1.86,.84-3.74,1.63-5.61,2.44-.14,.06-.29,.11-.49,.19Z"/><path class="cls-4" d="M696.41,253.3c-.12,0-.25,.03-.37,0-.07-.01-.17-.09-.18-.15-.01-.06,.05-.16,.11-.21,.05-.05,.14-.07,.21-.09,1.57-.47,3.06-1.12,4.5-1.85,2.48-1.24,4.93-2.54,7.4-3.8,.68-.35,1.41-.63,2.12-.93,.11-.05,.24-.08,.36-.07,.09,0,.21,.08,.23,.15,.02,.07-.05,.18-.11,.25-.03,.04-.1,.06-.16,.08-.97,.24-1.81,.72-2.66,1.18-2.46,1.33-4.93,2.65-7.49,3.82-1.11,.51-2.25,.95-3.38,1.42-.18,.08-.38,.12-.58,.18Z"/><path class="cls-4" d="M695.95,219.18c.08,.04,.24,.06,.3,.14,.1,.15-.04,.26-.19,.33-.47,.2-.95,.39-1.41,.6-3.65,1.7-7.4,3.21-10.99,5.04-.52,.27-1.03,.55-1.54,.83-.28,.16-.44,.17-.54,.05-.1-.13-.03-.27,.24-.44,.26-.16,.53-.31,.8-.45,2.57-1.34,5.22-2.52,7.88-3.68,1.64-.72,3.27-1.46,4.91-2.19,.15-.07,.32-.12,.54-.21Z"/><path class="cls-4" d="M694.48,248.04c-.08-.06-.23-.11-.27-.2-.07-.16,.1-.25,.24-.31,.85-.38,1.68-.79,2.54-1.13,3.65-1.44,7.19-3.07,10.63-4.92,.2-.11,.41-.22,.62-.31,.11-.05,.23-.09,.35-.1,.08,0,.19,.05,.22,.11,.03,.06,0,.17-.06,.23-.05,.07-.14,.11-.22,.15-2.94,1.58-5.95,3.05-9.04,4.35-1.54,.65-3.07,1.31-4.61,1.96-.11,.05-.23,.09-.4,.16Z"/><path class="cls-4" d="M683.08,216.49c.09,.48,.07,1.03-.15,1.56-.08,.18-.2,.36-.33,.51-.05,.05-.22,.08-.28,.05-.07-.03-.1-.16-.1-.25,0-.08,.07-.16,.1-.24,.49-1.08,.32-2.08-.35-3.02-.07-.1-.18-.2-.22-.31-.02-.07,.02-.2,.09-.26,.04-.04,.19-.04,.25,0,.1,.05,.19,.14,.27,.22,.44,.47,.61,1.05,.72,1.73Z"/><path class="cls-4" d="M683.97,216.31c-.03,.34-.05,.67-.09,1.01-.01,.11-.07,.23-.15,.31-.06,.06-.2,.12-.27,.1-.07-.02-.12-.14-.16-.23-.02-.05,0-.11,.02-.17,.2-.65,.07-1.26-.26-1.84-.05-.09-.09-.18-.12-.27-.03-.13,0-.28,.16-.31,.09-.01,.26,.06,.3,.13,.17,.33,.31,.67,.46,1,.03,.08,.03,.17,.04,.25,.02,0,.04,0,.06,0Z"/><path class="cls-4" d="M684.95,216.07c-.01,.27,0,.54-.05,.8-.02,.09-.17,.23-.27,.24-.19,.02-.25-.14-.23-.29,.06-.54-.05-1.04-.29-1.52-.02-.05-.06-.12-.04-.16,.04-.1,.09-.24,.17-.26,.08-.02,.25,.05,.29,.13,.13,.25,.22,.52,.32,.78,.03,.09,.03,.19,.05,.29,.01,0,.03,0,.04,0Z"/><path class="cls-4" d="M686.2,215.41c0,.28,0,.56-.03,.84-.01,.14-.09,.29-.28,.28-.2,0-.22-.16-.23-.31-.02-.35-.06-.7-.08-1.05,0-.06-.03-.12-.01-.17,.06-.11,.12-.26,.21-.29,.18-.06,.27,.08,.31,.23,.04,.15,.05,.3,.07,.46,.01,0,.03,0,.04,0Z"/><path class="cls-4" d="M675.22,218.73c0,.06,.03,.12,0,.17-.05,.09-.12,.23-.2,.25-.08,.02-.2-.08-.28-.15-.05-.04-.06-.13-.07-.2-.1-.44-.29-.82-.67-1.12-.12-.09-.22-.22-.09-.36,.13-.14,.29-.1,.42,0,.14,.1,.3,.21,.39,.35,.2,.34,.37,.7,.55,1.05-.02,0-.03,.02-.05,.02Z"/><path class="cls-4" d="M677.29,217.46c-.08,.13-.11,.17-.12,.21-.03,.14-.04,.31-.25,.31-.19,0-.23-.16-.28-.29-.04-.09-.09-.19-.09-.28,0-.09,.04-.2,.1-.27,.13-.14,.76-.19,.98-.09,.22,.1,.37,.38,.32,.65-.02,.08-.11,.23-.16,.23-.1,0-.21-.07-.29-.14-.08-.07-.12-.17-.22-.31Z"/><path class="cls-4" d="M676.44,218.37c-.03,.19-.04,.36-.24,.41-.21,.05-.3-.09-.34-.25-.09-.36-.26-.68-.56-.93-.07-.05-.09-.26-.05-.28,.09-.06,.25-.09,.36-.08,.09,0,.2,.09,.25,.17,.21,.32,.4,.65,.59,.97Z"/></g></g></g></svg>