<?xml version="1.0" encoding="UTF-8"?><svg id="_圖層_1" xmlns="http://www.w3.org/2000/svg" xmlns:xlink="http://www.w3.org/1999/xlink" viewBox="0 0 549.38 517.54"><defs><style>.cls-1{fill:url(#_未命名漸層_14-5);}.cls-1,.cls-2,.cls-3,.cls-4,.cls-5{opacity:.6;}.cls-6{fill:#fff;}.cls-2{fill:url(#_未命名漸層_14-4);}.cls-3{fill:url(#_未命名漸層_14-2);}.cls-4{fill:url(#_未命名漸層_14-3);}.cls-5{fill:url(#_未命名漸層_14);}</style><radialGradient id="_未命名漸層_14" cx="135.1" cy="-31.73" fx="135.1" fy="-31.73" r="290.71" gradientTransform="translate(-15.25 138.65) rotate(-6.21)" gradientUnits="userSpaceOnUse"><stop offset=".01" stop-color="#efd96c" stop-opacity=".5"/><stop offset=".05" stop-color="#edd264" stop-opacity=".54"/><stop offset=".23" stop-color="#e8b342" stop-opacity=".7"/><stop offset=".42" stop-color="#e59b27" stop-opacity=".83"/><stop offset=".61" stop-color="#e28a14" stop-opacity=".93"/><stop offset=".8" stop-color="#e08008" stop-opacity=".98"/><stop offset="1" stop-color="#e07d05"/></radialGradient><radialGradient id="_未命名漸層_14-2" cx="21.9" cy="80.63" fx="21.9" fy="80.63" r="21.9" gradientTransform="matrix(1, 0, 0, 1, 0, 0)" xlink:href="#_未命名漸層_14"/><radialGradient id="_未命名漸層_14-3" cx="102.9" cy="470.63" fx="102.9" fy="470.63" r="46.9" gradientTransform="matrix(1, 0, 0, 1, 0, 0)" xlink:href="#_未命名漸層_14"/><radialGradient id="_未命名漸層_14-4" cx="464.09" cy="395.02" fx="464.09" fy="395.02" r="14.05" gradientTransform="matrix(1, 0, 0, 1, 0, 0)" xlink:href="#_未命名漸層_14"/><radialGradient id="_未命名漸層_14-5" cx="511.09" cy="343.02" fx="511.09" fy="343.02" r="38.29" gradientTransform="matrix(1, 0, 0, 1, 0, 0)" xlink:href="#_未命名漸層_14"/></defs><circle class="cls-5" cx="256.2" cy="216.2" r="216.19"/><g><path class="cls-6" d="M135.18,197.04h5.44l9.23,26.13,2.81,9.11h.23c-.23-4.12-.63-8.88-.63-13.18v-22.06h4.47v42.11h-5.44l-9.11-26.01-2.92-9.22h-.23c.23,4.24,.63,8.88,.63,13.18v22.06h-4.47v-42.11Z"/><path class="cls-6" d="M164.11,197.04h20.11v4.58h-14.78v13.18h12.32v4.53h-12.32v15.3h15.3v4.53h-20.63v-42.11Z"/><path class="cls-6" d="M197.68,217.2l-8.48-20.17h5.56l4.01,10.43c.69,1.89,1.49,4.18,2.41,6.59h.23c.86-2.41,1.72-4.64,2.41-6.59l3.84-10.43h5.27l-8.48,20.8,8.94,21.31h-5.67l-4.24-10.94c-.75-2.06-1.55-4.76-2.52-7.33h-.23c-.86,2.52-1.89,5.27-2.58,7.33l-4.07,10.94h-5.33l8.94-21.94Z"/><path class="cls-6" d="M225.99,201.62h-10.08v-4.58h25.44v4.58h-10.03v37.53h-5.33v-37.53Z"/><path class="cls-6" d="M272.05,233.65l3.38-3.61c2.35,3.15,5.33,5.16,8.42,5.16,3.72,0,6.19-2.46,6.19-6.02,0-4.12-2.29-6.42-5.5-8.48l-4.24-2.75c-3.84-2.46-6.76-5.39-6.76-11,0-6.07,4.41-10.6,10.77-10.6,4.18,0,7.56,2.18,10.2,5.21l-2.92,3.44c-2.18-2.41-4.3-4.01-7.22-4.01-3.09,0-5.5,2.18-5.5,5.56,0,3.55,1.66,5.21,5.62,7.79l4.07,2.64c3.84,2.52,6.88,5.44,6.88,11.52s-4.47,11.34-11.57,11.34c-4.7,0-8.71-2.35-11.8-6.19Z"/><path class="cls-6" d="M308.66,201.62h-10.08v-4.58h25.44v4.58h-10.03v37.53h-5.33v-37.53Z"/><path class="cls-6" d="M329.46,197.04h20.11v4.58h-14.78v13.18h12.32v4.53h-12.32v15.3h15.3v4.53h-20.63v-42.11Z"/><path class="cls-6" d="M356.21,197.04h8.08c9.11,0,14.38,3.15,14.38,12.38s-5.27,13.01-14.38,13.01h-2.75v16.73h-5.33v-42.11Zm7.45,21.08c6.7,0,9.74-2.69,9.74-8.71s-3.04-8.02-9.74-8.02h-2.12v16.73h2.12Z"/></g><circle class="cls-3" cx="21.9" cy="80.63" r="21.9"/><circle class="cls-4" cx="102.9" cy="470.63" r="46.9"/><circle class="cls-2" cx="464.09" cy="395.02" r="14.05"/><circle class="cls-1" cx="511.09" cy="343.02" r="38.29"/></svg>