<?xml version="1.0" encoding="UTF-8"?><svg id="_圖層_1" xmlns="http://www.w3.org/2000/svg" viewBox="0 0 1921 437.28"><defs><style>.cls-1,.cls-2,.cls-3{fill:#fff;}.cls-4,.cls-5{fill:#4504aa;}.cls-6{fill:#ede2c5;}.cls-7,.cls-8{fill:#a40508;}.cls-9{fill:#dec8c7;}.cls-10,.cls-11,.cls-12{fill:#383838;}.cls-10,.cls-2{font-size:27.92px;}.cls-10,.cls-2,.cls-8{font-family:DFGothicP-W5-WIN-RKSJ-H, DFGothicP;}.cls-13{fill:#3f1600;}.cls-13,.cls-5{font-family:SimHei, SimHei;font-size:22.03px;}.cls-11{stroke:#383838;stroke-width:.5px;}.cls-11,.cls-3,.cls-14,.cls-15{stroke-miterlimit:10;}.cls-3{stroke:#fff;}.cls-14{fill:#ebe4dc;stroke:#2d1609;}.cls-8{font-size:40.65px;}.cls-15{fill:none;stroke:#4504aa;}</style></defs><rect class="cls-14" x=".5" y=".5" width="1920" height="436.28"/><text class="cls-8" transform="translate(838.86 68.32)"><tspan x="0" y="0">會員註冊流程</tspan></text><g><g><text class="cls-5" transform="translate(1142 333.81)"><tspan x="0" y="0">認證碼時效過期</tspan><tspan x="11.01" y="26.43">請再重新申請</tspan></text><g><circle class="cls-4" cx="1218.17" cy="218.64" r="71.29"/><text class="cls-2" transform="translate(1183.35 182.88)"><tspan x="0" y="0">OOPS..</tspan></text><path class="cls-3" d="M1189.48,230.59c-.25-13.65,12.71-26.83,26.1-27.34,16.07-3.19,31.66,12.34,31.26,28.63-.39,15.5-11.11,28.19-27.08,28.32-18.47,.15-29.55-9.57-30.28-29.62Zm56.8,2.73c-.17-11.52-4.38-19.37-12.69-25.09-4.42-3.04-9.22-4.95-14.57-4.68-4.64,.24-9.24,.91-13.51,3.19-6.3,3.36-10.73,8.31-13.61,14.78-2.22,4.96-2.29,10.09-1.3,15.29,1.26,6.65,3.96,12.7,9.46,16.8,7.19,5.37,15.42,7.57,24.34,5.42,2.66-.64,5.13-2.17,7.63-3.4,1.56-.76,3.21-1.51,4.51-2.63,6.46-5.54,9.27-12.82,9.75-19.69Z"/><path class="cls-3" d="M1214.49,222.35c-.28,1.12-.34,1.98-.72,2.66-.27,.49-.96,.98-1.5,1.01-.45,.03-1.11-.49-1.4-.94-1.04-1.67-.76-3.38,.17-5,.46-.81,1.57-.96,2.2-.18,.6,.74,.89,1.73,1.25,2.45Z"/><path class="cls-3" d="M1204.03,242.28c-.48-.61-.94-1.2-1.24-1.58,.6-.33,1.08-.5,1.44-.82,1.65-1.44,3.2-3.02,4.92-4.38,2.62-2.06,5.82-2.28,8.96-2.28,4.68,0,8.92,1.69,12.94,3.93,.67,.37,1.21,.99,1.84,1.44,.29,.2,.68,.25,1.2,.44-.22,.42-.51,.97-.8,1.52-.07-1.72-1.38-2.38-2.49-3.01-4.12-2.34-8.5-3.79-13.33-3.83-5.53-.05-9.57,2.59-12.91,6.66-.33,.41-.33,1.09-.56,1.91Z"/><path class="cls-3" d="M1225.21,222.71c-.21,.63-.32,1.34-.67,1.9-.68,1.1-1.94,1.01-2.5-.14-.64-1.33-.9-2.76-.15-4.11,.32-.57,.99-1.04,1.6-1.27,.2-.07,.87,.71,1.09,1.2,.31,.73,.41,1.55,.62,2.42Z"/></g><circle class="cls-15" cx="1218.17" cy="218.02" r="82.82"/></g><polygon class="cls-7" points="831.73 225.48 820.29 232.08 808.86 238.68 808.86 225.48 808.86 212.28 820.29 218.88 831.73 225.48"/><polygon class="cls-7" points="1090.05 225.48 1078.62 232.08 1067.19 238.68 1067.19 225.48 1067.19 212.28 1078.62 218.88 1090.05 225.48"/><g><circle class="cls-1" cx="691.13" cy="220.14" r="71.29"/><text class="cls-10" transform="translate(656.31 184.38)"><tspan x="0" y="0">STEP1</tspan></text><text class="cls-13" transform="translate(625.98 335.31)"><tspan x="0" y="0">正確填寫下方</tspan><tspan x="0" y="26.43">註冊會員資料</tspan></text><rect class="cls-9" x="681.32" y="224.04" width="22.58" height="38.43" rx="5.91" ry="5.91" transform="translate(-38.24 312.14) rotate(-24.74)"/><g><path class="cls-11" d="M686.1,253.97c-.22,.07-.4,.12-.57,.18-.46,.17-.92,.26-1.41,.27-.28,0-.44-.07-.54-.29-.46-.98-.95-1.94-1.36-2.94-.57-1.38-1.06-2.78-1.61-4.16-.71-1.76-1.73-3.37-2.8-4.95-.5-.74-1.03-1.45-1.54-2.18-.92-1.32-2.17-2.34-3.6-3.18-1.06-.63-2.17-1.16-3.34-1.6-2.6-.97-4.47-2.65-5.83-4.84-.73-1.17-1.31-2.41-1.71-3.71-.36-1.19-.55-2.42-.63-3.67-.1-1.43,.05-2.83,.46-4.22,.29-.99,.71-1.92,1.36-2.77,.79-1.05,1.88-1.77,3.12-2.3,1.5-.65,3.03-1.24,4.53-1.91,1.87-.84,3.71-1.75,5.58-2.61,1.97-.92,3.95-1.84,6.02-2.56,1.45-.5,2.92-.96,4.36-1.48,.89-.32,1.74-.72,2.6-1.11,.73-.33,1.45-.69,2.17-1.04,.12-.06,.27-.11,.36-.19,.39-.38,.89-.46,1.41-.48,.99-.04,1.9,.24,2.76,.61,1.55,.67,2.75,1.68,3.39,3.16,.51,1.17,.7,2.39,.38,3.65-.08,.33-.01,.59,.17,.87,2.17,3.38,4.25,6.8,5.83,10.47,1.12,2.61,2.34,5.18,3.48,7.78,.64,1.47,1.22,2.96,1.82,4.45,.8,1.99,1.77,3.91,2.88,5.76,1.5,2.5,2.67,5.13,3.71,7.82,.43,1.11,.94,2.19,1.42,3.28,.24,.53,.48,1.06,.73,1.59,.58,1.18,1.18,2.36,1.77,3.54,.02,.04,.03,.1,.07,.11,.55,.21,.43,.8,.76,1.14,.16,.16,.04,.31-.26,.44-1.03,.46-2.06,.91-3.09,1.38-5.66,2.53-11.31,5.06-16.97,7.59-1.86,.83-3.72,1.67-5.58,2.5-.18,.08-.34,.2-.5,.31-.05,.03-.09,.08-.15,.1-.57,.19-1.14,.41-1.73,.55-.56,.14-.66,.06-.94-.37-.88-1.35-1.64-2.75-2.33-4.19-1.13-2.36-2.09-4.79-3.07-7.21-.43-1.07-.9-2.12-1.36-3.17-.06-.13-.13-.25-.23-.42Zm-13.3-31.13c.06,.15,.11,.28,.17,.4,3.22,6.57,6.43,13.14,9.65,19.71,3.27,6.68,6.55,13.37,9.83,20.05,.67,1.37,1.34,2.74,2.01,4.1,.16,.32,.21,.34,.52,.21,1.39-.59,2.79-1.18,4.17-1.8,2.09-.93,4.14-1.93,6.24-2.83,3.37-1.45,6.77-2.82,10.13-4.28,1.76-.76,3.46-1.63,5.18-2.46,.44-.21,.44-.24,.24-.63-.37-.72-.76-1.44-1.14-2.16-.09-.18-.21-.34-.29-.52-.28-.64-.54-1.28-.82-1.92-.59-1.37-1.24-2.72-1.78-4.1-.98-2.47-2.05-4.9-3.42-7.2-1.1-1.84-2.1-3.73-2.9-5.71-.62-1.53-1.21-3.06-1.87-4.57-1-2.3-2.1-4.58-3.08-6.89-1.63-3.86-3.71-7.5-5.99-11.05-.07-.11-.16-.22-.3-.4-.11,.28-.2,.46-.25,.65-.07,.25-.2,.44-.45,.57-.58,.31-1.15,.65-1.73,.95-1.29,.66-2.58,1.31-3.89,1.94-.69,.34-1.4,.65-2.11,.96-.91,.39-1.83,.76-2.75,1.11-1.39,.53-2.81,1-4.13,1.67-2.13,1.08-4.25,2.16-6.39,3.24-1.45,.73-2.97,1.15-4.63,.93-.05,0-.11,.02-.23,.03Zm5.38-9.77c-.07-.09-.08-.12-.1-.14-.02-.02-.05-.04-.07-.05-1.35-.74-2.81-1.09-4.43-.92-1.72,.17-3.38,.54-4.97,1.18-1.09,.44-2.22,.8-3.24,1.38-.94,.54-1.7,1.22-2.26,2.1-.65,1.02-1.01,2.12-1.24,3.26-.32,1.56-.21,3.1,.02,4.65,.26,1.75,.88,3.39,1.75,4.94,1.33,2.38,3.23,4.22,6,5.24,1.16,.43,2.26,.95,3.29,1.59,.55,.34,1.05,.73,1.61,1.05,.49,.28,.86,.63,1.22,1.05,1.12,1.32,2.06,2.74,3.02,4.15,1.33,1.94,2.32,4.03,3.11,6.21,.43,1.17,.91,2.32,1.39,3.47,.21,.5,.47,.97,.71,1.46,.07,.14,.13,.3,.36,.26,.53-.08,1.01-.26,1.52-.49-.08-.19-.14-.35-.21-.5-.85-1.74-1.7-3.48-2.55-5.22-.21-.43-.39-.89-.67-1.29-.21-.3-.37-.61-.52-.93-.29-.63-.59-1.26-.91-1.88-.24-.47-.54-.91-.81-1.36-.05-.08-.12-.18-.11-.27,.04-.32-.13-.57-.26-.84-1.38-2.78-2.76-5.56-4.15-8.33-.72-1.42-1.47-2.83-2.21-4.25-.3-.57-.75-1-1.33-1.35-1.12-.67-2.14-1.45-3-2.39-1.01-1.12-1.79-2.33-1.88-3.85-.05-.73,0-1.44,.4-2.11,.16-.27,.43-.5,.44-.84,0-.09,.14-.19,.23-.26,.13-.1,.29-.18,.43-.26,2.12-1.26,4.4-2.23,6.65-3.24,.69-.31,1.4-.58,2.1-.88,.22-.09,.43-.22,.67-.35Zm2.05,6.87l.06,.06c.1-.03,.2-.06,.29-.11,.3-.15,.6-.31,.9-.47,1.6-.86,3.21-1.7,4.94-2.32,.95-.34,1.9-.67,2.83-1.05,2.37-.98,4.69-2.09,6.95-3.27,.6-.31,1.2-.63,1.8-.94,.32-.17,.57-.4,.67-.74,.15-.51,.34-1.01,.45-1.52,.33-1.51,.08-2.95-.81-4.22-1.05-1.49-2.62-2.31-4.52-2.64-.51-.09-1.01-.08-1.47,.24-.2,.14-.45,.21-.67,.31-.59,.28-1.19,.53-1.76,.83-1.29,.7-2.66,1.24-4.06,1.7-1.47,.49-2.95,.96-4.4,1.51-3.06,1.16-5.96,2.64-8.89,4.05-.07,.03-.12,.1-.19,.16,.07,.03,.1,.05,.13,.04,.23-.02,.46-.05,.7-.08,1.21-.14,2.39-.1,3.53,.28,1.74,.57,3.15,1.55,4.35,2.79,.79,.81,.95,1.79,.7,2.85-.18,.75-.61,1.4-1.11,2.02-.14,.17-.28,.33-.42,.5Zm-6.23,.17c-.06-.36-.12-.65-.14-.94-.04-.57-.38-.93-.89-1.19-.09-.05-.21-.08-.28-.15-.06-.06-.11-.18-.08-.25,.03-.07,.17-.14,.26-.13,.13,0,.27,.05,.39,.11,.6,.3,1.01,.71,1.09,1.36,.04,.3,.09,.6,.15,.96,.17-.07,.33-.12,.47-.19,1.5-.69,3.01-1.37,4.5-2.08,.55-.26,1.06-.61,1.59-.91,.22-.12,.27-.29,.24-.51-.05-.4-.2-.76-.47-1.08-.52-.63-1.17-1.14-1.84-1.62-.15-.11-.29-.12-.47-.04-.63,.29-1.27,.56-1.9,.84-1.13,.5-2.26,.99-3.38,1.52-1.09,.51-2.16,1.06-3.23,1.6-.1,.05-.19,.13-.33,.23,.14,.04,.2,.07,.28,.07,.8,.04,1.5,.3,2.15,.7,.68,.42,1.28,.92,1.43,1.72,0,.04,.05,.07,.1,.13,.13-.05,.27-.1,.37-.14Zm-3.07,1.95c.08,.15,.16,.27,.22,.39,.33,.69,.65,1.39,1,2.08,.88,1.71,1.76,3.42,2.66,5.12,.51,.97,1.09,1.91,1.59,2.89,.93,1.81,1.81,3.65,2.72,5.47,1.28,2.56,2.59,5.11,3.83,7.69,1.32,2.74,2.57,5.52,3.87,8.26,.81,1.71,1.67,3.4,2.51,5.09,1.35,2.73,2.71,5.46,4.07,8.18,.06,.13,.13,.26,.19,.38,.07,.13,.17,.21,.33,.13,.16-.08,.15-.2,.09-.33-.03-.05-.05-.1-.08-.15-.6-1.23-1.2-2.46-1.8-3.68-3.26-6.66-6.52-13.32-9.79-19.98-3.37-6.89-6.75-13.78-10.12-20.67-.17-.35-.4-.66-.71-.91-.25-.21-.25-.21-.59,.04Zm1.01-3.14c-.43-.31-.86-.49-1.32-.61-1.51-.4-2.48,.23-2.78,1.58-.02,.07-.03,.14-.03,.21-.06,.82,.02,1.62,.36,2.37,.76,1.67,2.09,2.9,3.66,3.95,.04,.02,.1,.02,.2,.03-.07-.12-.1-.2-.14-.27-.44-.64-.85-1.3-1.33-1.91-.37-.47-.59-1-.83-1.53-.13-.28-.09-.39,.18-.59,.24-.19,.49-.36,.75-.53,.19-.12,.34-.23,.28-.49-.02-.08,.1-.21,.18-.31,.05-.06,.14-.09,.22-.14-.25-.22-.36-.27-.62-.23-.11,.02-.21,.06-.32,.07-.18,0-.32-.16-.22-.28,.19-.23,.42-.44,.64-.64,.05-.04,.15-.05,.22-.05,.39-.02,.68,.15,.94,.38,.1,.09,.11,.21,.04,.35-.06,.11-.1,.25-.07,.35,.07,.28,.05,.52-.27,.71,.12,.07,.19,.12,.26,.16,.09,.04,.19,.08,.28,.11,.75-.55,1.11-1.73,.38-2.07-.28,.32-.4,.32-.66,0-.18-.21-.16-.41,.03-.64Zm.62,3.22c.29,.07,.53,.16,.78,.19,.97,.11,1.92-.07,2.84-.37,1.75-.58,3.13-1.62,4.19-3.01,.29-.39,.51-.82,.74-1.24,.07-.12,.08-.26,.14-.47-.19,.09-.29,.12-.37,.17-.3,.16-.58,.35-.88,.49-2.07,.95-4.15,1.89-6.23,2.84-.15,.07-.32,.15-.41,.27-.26,.34-.49,.69-.79,1.13Zm21.24,46.69c.13-.04,.19-.06,.25-.08,.62-.24,1.26-.45,1.86-.72,8.25-3.69,16.5-7.38,24.75-11.08,.27-.12,.54-.23,.8-.37,.07-.04,.1-.15,.15-.23-.1-.05-.2-.13-.3-.14-.09,0-.2,.07-.29,.12-.45,.23-.9,.47-1.36,.69-3.65,1.76-7.39,3.36-11.16,4.9-2.16,.88-4.31,1.81-6.44,2.75-1.4,.62-2.76,1.32-4.15,1.94-1.28,.57-2.59,1.09-3.88,1.64-.1,.04-.22,.07-.29,.13-.08,.07-.18,.2-.16,.26,.04,.09,.18,.14,.25,.19Zm-1.05-1.48s.07-.02,.11-.03c-.81-1.62-1.62-3.25-2.43-4.87-.03,.01-.06,.03-.09,.04,.69,1.67,1.46,3.31,2.41,4.86Zm-22.21-44.99c-.31,.16-.32,.17-.21,.4,.09,.19,.16,.39,.26,.58,.24,.45,.55,.85,.87,1.24,.03-.01,.05-.03,.08-.04-.33-.72-.67-1.45-1-2.17Z"/><path class="cls-11" d="M698.06,259.47c-.09-.04-.23-.06-.28-.14-.1-.13,.01-.24,.14-.31,.36-.2,.72-.42,1.1-.59,2.1-.97,4.2-1.95,6.32-2.88,1.71-.75,3.43-1.49,5.18-2.16,.88-.34,1.82-.52,2.73-.77,.37-.1,.75-.19,1.13-.29,.08-.02,.16-.07,.22-.06,.11,.02,.27,.05,.29,.12,.03,.07-.04,.23-.12,.28-.18,.1-.39,.17-.6,.23-.35,.09-.7,.17-1.05,.24-1.76,.37-3.42,1.02-5.04,1.75-2.85,1.28-5.69,2.55-8.54,3.83-.37,.16-.71,.36-1.07,.55-.12,.06-.25,.12-.42,.2Z"/><path class="cls-11" d="M684.48,231.52c-.07-.04-.2-.08-.24-.16-.03-.06,.02-.2,.09-.25,.13-.1,.29-.17,.45-.23,2.88-1.14,5.67-2.47,8.47-3.76,1.78-.82,3.62-1.53,5.43-2.29,.44-.19,.88-.37,1.32-.56,.11-.05,.23-.1,.34-.14,.16-.06,.32-.05,.39,.11,.07,.15-.03,.25-.16,.31-.15,.08-.31,.15-.46,.21-1.42,.58-2.85,1.13-4.25,1.75-2.11,.93-4.18,1.92-6.29,2.85-1.6,.71-3.21,1.37-4.82,2.06-.07,.03-.14,.05-.28,.1Z"/><path class="cls-11" d="M703.77,230.14c-.15,.14-.23,.25-.34,.3-.24,.11-.5,.17-.74,.27-1.54,.68-3.08,1.36-4.61,2.05-3.03,1.36-6.11,2.62-9.23,3.77-.3,.11-.62,.2-.81,.49-.04,.06-.21,.12-.27,.1-.09-.04-.18-.16-.19-.25-.03-.2,.13-.35,.31-.44,.29-.14,.59-.28,.89-.39,3.87-1.43,7.65-3.04,11.38-4.76,.88-.41,1.78-.78,2.68-1.15,.17-.07,.36-.12,.54-.13,.1,0,.21,.07,.39,.15Z"/><path class="cls-11" d="M691.55,242.99c-.09-.05-.23-.1-.27-.19-.03-.06,.06-.22,.15-.27,.18-.11,.39-.18,.59-.26,3.35-1.35,6.6-2.89,9.84-4.43,1.18-.56,2.39-1.09,3.59-1.62,.17-.08,.34-.14,.52-.2,.14-.05,.29-.05,.36,.09,.08,.16-.03,.27-.18,.35-.04,.02-.09,.04-.13,.05-2.79,1.28-5.58,2.58-8.38,3.84-1.86,.84-3.74,1.63-5.61,2.44-.14,.06-.29,.11-.49,.19Z"/><path class="cls-11" d="M696.41,253.3c-.12,0-.25,.03-.37,0-.07-.01-.17-.09-.18-.15-.01-.06,.05-.16,.11-.21,.05-.05,.14-.07,.21-.09,1.57-.47,3.06-1.12,4.5-1.85,2.48-1.24,4.93-2.54,7.4-3.8,.68-.35,1.41-.63,2.12-.93,.11-.05,.24-.08,.36-.07,.09,0,.21,.08,.23,.15,.02,.07-.05,.18-.11,.25-.03,.04-.1,.06-.16,.08-.97,.24-1.81,.72-2.66,1.18-2.46,1.33-4.93,2.65-7.49,3.82-1.11,.51-2.25,.95-3.38,1.42-.18,.08-.38,.12-.58,.18Z"/><path class="cls-11" d="M695.95,219.18c.08,.04,.24,.06,.3,.14,.1,.15-.04,.26-.19,.33-.47,.2-.95,.39-1.41,.6-3.65,1.7-7.4,3.21-10.99,5.04-.52,.27-1.03,.55-1.54,.83-.28,.16-.44,.17-.54,.05-.1-.13-.03-.27,.24-.44,.26-.16,.53-.31,.8-.45,2.57-1.34,5.22-2.52,7.88-3.68,1.64-.72,3.27-1.46,4.91-2.19,.15-.07,.32-.12,.54-.21Z"/><path class="cls-11" d="M694.48,248.04c-.08-.06-.23-.11-.27-.2-.07-.16,.1-.25,.24-.31,.85-.38,1.68-.79,2.54-1.13,3.65-1.44,7.19-3.07,10.63-4.92,.2-.11,.41-.22,.62-.31,.11-.05,.23-.09,.35-.1,.08,0,.19,.05,.22,.11,.03,.06,0,.17-.06,.23-.05,.07-.14,.11-.22,.15-2.94,1.58-5.95,3.05-9.04,4.35-1.54,.65-3.07,1.31-4.61,1.96-.11,.05-.23,.09-.4,.16Z"/><path class="cls-11" d="M683.08,216.49c.09,.48,.07,1.03-.15,1.56-.08,.18-.2,.36-.33,.51-.05,.05-.22,.08-.28,.05-.07-.03-.1-.16-.1-.25,0-.08,.07-.16,.1-.24,.49-1.08,.32-2.08-.35-3.02-.07-.1-.18-.2-.22-.31-.02-.07,.02-.2,.09-.26,.04-.04,.19-.04,.25,0,.1,.05,.19,.14,.27,.22,.44,.47,.61,1.05,.72,1.73Z"/><path class="cls-11" d="M683.97,216.31c-.03,.34-.05,.67-.09,1.01-.01,.11-.07,.23-.15,.31-.06,.06-.2,.12-.27,.1-.07-.02-.12-.14-.16-.23-.02-.05,0-.11,.02-.17,.2-.65,.07-1.26-.26-1.84-.05-.09-.09-.18-.12-.27-.03-.13,0-.28,.16-.31,.09-.01,.26,.06,.3,.13,.17,.33,.31,.67,.46,1,.03,.08,.03,.17,.04,.25,.02,0,.04,0,.06,0Z"/><path class="cls-11" d="M684.95,216.07c-.01,.27,0,.54-.05,.8-.02,.09-.17,.23-.27,.24-.19,.02-.25-.14-.23-.29,.06-.54-.05-1.04-.29-1.52-.02-.05-.06-.12-.04-.16,.04-.1,.09-.24,.17-.26,.08-.02,.25,.05,.29,.13,.13,.25,.22,.52,.32,.78,.03,.09,.03,.19,.05,.29,.01,0,.03,0,.04,0Z"/><path class="cls-11" d="M686.2,215.41c0,.28,0,.56-.03,.84-.01,.14-.09,.29-.28,.28-.2,0-.22-.16-.23-.31-.02-.35-.06-.7-.08-1.05,0-.06-.03-.12-.01-.17,.06-.11,.12-.26,.21-.29,.18-.06,.27,.08,.31,.23,.04,.15,.05,.3,.07,.46,.01,0,.03,0,.04,0Z"/><path class="cls-11" d="M675.22,218.73c0,.06,.03,.12,0,.17-.05,.09-.12,.23-.2,.25-.08,.02-.2-.08-.28-.15-.05-.04-.06-.13-.07-.2-.1-.44-.29-.82-.67-1.12-.12-.09-.22-.22-.09-.36,.13-.14,.29-.1,.42,0,.14,.1,.3,.21,.39,.35,.2,.34,.37,.7,.55,1.05-.02,0-.03,.02-.05,.02Z"/><path class="cls-11" d="M677.29,217.46c-.08,.13-.11,.17-.12,.21-.03,.14-.04,.31-.25,.31-.19,0-.23-.16-.28-.29-.04-.09-.09-.19-.09-.28,0-.09,.04-.2,.1-.27,.13-.14,.76-.19,.98-.09,.22,.1,.37,.38,.32,.65-.02,.08-.11,.23-.16,.23-.1,0-.21-.07-.29-.14-.08-.07-.12-.17-.22-.31Z"/><path class="cls-11" d="M676.44,218.37c-.03,.19-.04,.36-.24,.41-.21,.05-.3-.09-.34-.25-.09-.36-.26-.68-.56-.93-.07-.05-.09-.26-.05-.28,.09-.06,.25-.09,.36-.08,.09,0,.2,.09,.25,.17,.21,.32,.4,.65,.59,.97Z"/></g></g><g><polygon class="cls-7" points="830.69 225.33 819.26 231.93 807.82 238.53 807.82 225.33 807.82 212.14 819.26 218.73 830.69 225.33"/><polygon class="cls-7" points="1090.28 225.33 1078.85 231.93 1067.42 238.53 1067.42 225.33 1067.42 212.14 1078.85 218.73 1090.28 225.33"/></g><g><circle class="cls-1" cx="949.05" cy="218.5" r="71.29"/><text class="cls-10" transform="translate(914.48 182.74)"><tspan x="0" y="0">STEP2</tspan></text><text class="cls-13" transform="translate(905.04 333.67)"><tspan x="0" y="0">註冊信箱</tspan><tspan x="-11.01" y="26.43">查收認證信</tspan></text><g><rect class="cls-6" x="933.19" y="221.52" width="29.39" height="18.15" rx="9.07" ry="9.07" transform="translate(-27.59 220.03) rotate(-13.05)"/><g><path class="cls-12" d="M993.98,238.88c-.35,1.27-.66,2.55-1.08,3.79-.14,.42-.55,.82-.94,1.05-.31,.18-.84,.21-1.17,.06-.17-.08-.18-.68-.14-1.03,.17-1.45,.51-2.89,.54-4.34,.02-.78-.35-1.62-.7-2.36-.28-.59-.41-1.1,.17-1.45,.54-.32,1.14-.49,1.67,.17,.95,1.19,1.52,2.49,1.65,4.1Z"/><path class="cls-12" d="M986.51,238.61c-.31,1.11-.53,2.12-.89,3.09-.14,.38-.55,.74-.92,.92-.73,.33-1.13,0-1.08-.79,.04-.63,.21-1.25,.17-1.87-.07-1.21-.32-2.4-.36-3.61-.02-.47,.19-1.13,.53-1.37,.56-.4,1.28-.21,1.56,.5,.39,1.02,.66,2.1,.99,3.15Z"/><path class="cls-12" d="M977.29,237.69c-1.11-3.31-2.29-6.6-3.34-9.93-1-3.16-1.85-6.37-2.81-9.54-.81-2.68-1.63-5.35-2.53-8-.3-.87-.76-1.75-1.38-2.43-.41-.45-1.26-.81-1.84-.73-2.97,.42-5.95,.89-8.88,1.55-5.73,1.3-11.4,2.85-17.13,4.1-6.25,1.36-12.16,3.72-18.15,5.84-.51,.18-1.17,.66-1.28,1.11-.28,1.17-.55,2.44-.36,3.6,1.53,9.16,3.77,18.14,6.96,26.88,.83,2.28,.8,2.29,3.29,2.54,.86-.14,1.75-.18,2.56-.45,2.45-.81,4.83-1.84,7.31-2.54,6.36-1.79,12.75-3.45,19.13-5.16,3.21-.86,6.44-1.61,9.63-2.55,2.68-.79,5.29-1.81,7.95-2.67,1.12-.36,1.25-.5,.88-1.62Zm-53.84-18.17c6.86-2.63,13.84-4.82,21.11-6.11,4.08-.73,8.05-2.09,12.11-2.99,2.48-.54,5.03-.74,7.55-1.08l.22,.31c-3.66,5.3-7.31,10.6-10.97,15.89h0s-4.37,6.5-4.68,7.61c-.16,.57-.47,.78-.95,.65-.19-.05-.33-.13-.33-.13l-9.69-4.33c-.14-.01-.29-.07-.45-.16-.11-.06-.23-.13-.34-.19h0s0,0,0,0c-3.77-2.13-7.52-4.29-11.28-6.44-1.23-.7-2.45-1.42-3.98-2.3,.68-.3,1.16-.53,1.66-.72Zm50.07,18.6c-4.83,1.89-9.78,3.3-14.84,4.46-5.85,1.35-11.63,3.02-17.4,4.69-2.84,.82-5.59,1.99-8.4,2.91-.98,.32-2.05,.37-3.08,.5-.72,.09-1.13-.3-1.25-.98-.72-4.18-2.59-8.02-3.5-12.15-.99-4.47-1.94-8.95-2.89-13.43-.06-.28,.07-.59,.11-.89,.32,.07,.7,.05,.97,.21,1.75,1.09,3.43,2.29,5.22,3.32,2.57,1.48,5.16,2.95,7.84,4.2,.16,.07,.32,.14,.49,.21h-.03s10.1,4.44,10.1,4.44c.17,.08,.34,.16,.51,.23,.09,.04,.18,.08,.27,.11h.01s0,0,0,0c1.55,.58,2.45,.08,3.07-1.59l6.09-9.85h0c2.78-3.89,5.46-7.85,8.2-11.78,.33-.47,.72-.89,1.08-1.33,.13,.04,.27,.07,.4,.11,.84,2.47,1.71,4.93,2.5,7.41,1.1,3.49,2.12,7.01,3.21,10.51,.71,2.3,1.46,4.59,2.23,6.86,.33,.98,.03,1.43-.92,1.8Z"/></g></g></g></g></svg>