<svg id="圖層_1" data-name="圖層 1" xmlns="http://www.w3.org/2000/svg" viewBox="0 0 56 52"><defs><style>.cls-1{fill:#074f8f;}.cls-2{fill:#fff;}</style></defs><circle class="cls-1" cx="28" cy="26" r="25.92"/><path class="cls-2" d="M13.09,35.82A1.67,1.67,0,0,1,12,35.48a1.54,1.54,0,0,1-.61-.9L6.59,18.45a1.47,1.47,0,0,1,.13-1.38A1.47,1.47,0,0,1,8,16.56H9.49a1.76,1.76,0,0,1,1.12.37,1.8,1.8,0,0,1,.64,1l1.86,7.4c.19.71.44,1.75.75,3.11s.56,2.37.75,3.06h.13c.18-.68.42-1.68.73-3s.58-2.45.77-3.16l1.84-7.4a1.8,1.8,0,0,1,.64-1,1.76,1.76,0,0,1,1.12-.37h1.32a1.32,1.32,0,0,1,1.4,1.89L17.72,34.5a1.82,1.82,0,0,1-.66,1,1.79,1.79,0,0,1-1.1.36H13.09Z"/><path class="cls-2" d="M27.46,35.82a2,2,0,0,1-2.33-2.3V18.86a2,2,0,0,1,2.33-2.3,2,2,0,0,1,2.3,2.3V33.52A2,2,0,0,1,27.46,35.82Z"/><path class="cls-2" d="M36.52,35.82a2,2,0,0,1-2.33-2.3V18.24a1.58,1.58,0,0,1,1.68-1.68H41a9.48,9.48,0,0,1,5.46,1.34,5.59,5.59,0,0,1,2.28,4.92,6,6,0,0,1-2.28,5,8.49,8.49,0,0,1-5.33,1.58H38.82v4.09A2,2,0,0,1,36.52,35.82Zm2.3-10h2q3.34,0,3.34-2.95a2.34,2.34,0,0,0-.9-2,4.61,4.61,0,0,0-2.57-.57H38.82v5.56Z"/></svg>