<svg id="圖層_1" data-name="圖層 1" xmlns="http://www.w3.org/2000/svg" xmlns:xlink="http://www.w3.org/1999/xlink" viewBox="0 0 47.65 18"><defs><style>.cls-1{font-size:12px;font-family:MicrosoftJhengHeiBold, Microsoft JhengHei;}.cls-1,.cls-4{fill:#ab5ae0;}.cls-2{fill:#d067e5;}.cls-3{fill:url(#未命名漸層_42);}.cls-5{fill:#fff;}</style><radialGradient id="未命名漸層_42" cx="3.67" cy="2.62" r="27.47" gradientUnits="userSpaceOnUse"><stop offset="0" stop-color="#eebbea"/><stop offset="1" stop-color="#3f9cff"/></radialGradient></defs><text class="cls-1" transform="translate(23.65 12.77)">傳奇</text><circle class="cls-2" cx="9.09" cy="9.11" r="8.89"/><circle class="cls-3" cx="8.89" cy="8.89" r="8.89"/><path class="cls-4" d="M13.12,4.27H10.2a1.14,1.14,0,0,0-.49.12,1.07,1.07,0,0,0-.57,1v9.75a5.39,5.39,0,0,0,5-5.38V5.34A1.06,1.06,0,0,0,13.12,4.27Z"/><path class="cls-4" d="M7.42,9.71h-4a5.39,5.39,0,0,0,5.08,5.38V10.78A1.06,1.06,0,0,0,7.42,9.71Z"/><path class="cls-5" d="M12.62,3.9H9.71A1.11,1.11,0,0,0,9.22,4a1.08,1.08,0,0,0-.58,1v9.75a5.39,5.39,0,0,0,5-5.38V5A1.07,1.07,0,0,0,12.62,3.9Z"/><path class="cls-5" d="M6.93,9.34h-4A5.4,5.4,0,0,0,8,14.72V10.4A1.07,1.07,0,0,0,6.93,9.34Z"/></svg>