<svg id="圖層_1" data-name="圖層 1" xmlns="http://www.w3.org/2000/svg" viewBox="0 0 47.65 18"><defs><style>.cls-1{font-size:12px;fill:#8c8c8c;font-family:MicrosoftJhengHeiBold, Microsoft JhengHei;}.cls-2{fill:#565656;}.cls-3{fill:#b5b5b5;}.cls-4{fill:#2b2b2b;}.cls-5{fill:#4c4c4c;}</style></defs><text class="cls-1" transform="translate(23.65 12.77)">白銀</text><circle class="cls-2" cx="9.07" cy="9.08" r="8.86"/><circle class="cls-3" cx="8.86" cy="8.86" r="8.86"/><path class="cls-4" d="M13,3.89h-2.9A1.11,1.11,0,0,0,9.64,4a1.07,1.07,0,0,0-.57,1v9.71a5.36,5.36,0,0,0,5-5.36V5A1.07,1.07,0,0,0,13,3.89Z"/><path class="cls-4" d="M7.35,9.31h-4a5.38,5.38,0,0,0,5.08,5.37v-4.3A1.07,1.07,0,0,0,7.35,9.31Z"/><path class="cls-5" d="M12.69,3.89H9.78A1.14,1.14,0,0,0,9.29,4,1.06,1.06,0,0,0,8.72,5v9.72a5.37,5.37,0,0,0,5-5.36V5A1.07,1.07,0,0,0,12.69,3.89Z"/><path class="cls-5" d="M7,9.31H3a5.39,5.39,0,0,0,5.08,5.37V10.37A1.07,1.07,0,0,0,7,9.31Z"/></svg>