<svg id="圖層_1" data-name="圖層 1" xmlns="http://www.w3.org/2000/svg" viewBox="0 0 47.65 18"><defs><style>.cls-1{font-size:12px;fill:#2faaad;font-family:MicrosoftJhengHeiBold, Microsoft JhengHei;}.cls-2{fill:#2f7a7c;}.cls-3{fill:#ceeaea;}.cls-4{fill:#68cfd7;}</style></defs><text class="cls-1" transform="translate(23.65 12.77)">鉑金</text><circle class="cls-2" cx="9.09" cy="9.11" r="8.89"/><circle class="cls-3" cx="8.89" cy="8.89" r="8.89"/><path class="cls-2" d="M13.07,3.9H10.16a1.06,1.06,0,0,0-.5.13A1,1,0,0,0,9.09,5v9.75a5.39,5.39,0,0,0,5-5.38V5A1.07,1.07,0,0,0,13.07,3.9Z"/><path class="cls-2" d="M7.37,9.34h-4a5.39,5.39,0,0,0,5.09,5.38V10.41A1.07,1.07,0,0,0,7.37,9.34Z"/><path class="cls-4" d="M12.72,3.9H9.81A1.11,1.11,0,0,0,9.32,4a1.08,1.08,0,0,0-.58,1v9.75a5.39,5.39,0,0,0,5-5.38V5A1.07,1.07,0,0,0,12.72,3.9Z"/><path class="cls-4" d="M7,9.34H3a5.4,5.4,0,0,0,5.09,5.38V10.4A1.07,1.07,0,0,0,7,9.34Z"/></svg>