<svg id="圖層_1" data-name="圖層 1" xmlns="http://www.w3.org/2000/svg" viewBox="0 0 47.65 18"><defs><style>.cls-1{font-size:12px;font-family:MicrosoftJhengHeiBold, Microsoft JhengHei;}.cls-1,.cls-4{fill:#ffa300;}.cls-2{fill:#684409;}.cls-3{fill:#ffce00;}</style></defs><text class="cls-1" transform="translate(23.65 12.77)">黃金</text><circle class="cls-2" cx="8.96" cy="9.11" r="8.89"/><circle class="cls-3" cx="8.76" cy="8.89" r="8.89"/><path class="cls-2" d="M12.94,3.9H10a1.19,1.19,0,0,0-.5.12A1.07,1.07,0,0,0,9,5v9.74a5.38,5.38,0,0,0,5-5.37V5A1.07,1.07,0,0,0,12.94,3.9Z"/><path class="cls-2" d="M7.25,9.34h-4a5.4,5.4,0,0,0,5.09,5.38V10.4A1.07,1.07,0,0,0,7.25,9.34Z"/><path class="cls-4" d="M12.59,3.9H9.68A1.11,1.11,0,0,0,9.19,4a1.08,1.08,0,0,0-.58,1v9.74a5.39,5.39,0,0,0,5.05-5.38V5A1.07,1.07,0,0,0,12.59,3.9Z"/><path class="cls-4" d="M6.9,9.34h-4A5.39,5.39,0,0,0,8,14.72V10.4A1.05,1.05,0,0,0,6.9,9.34Z"/></svg>